<svg width="42" height="24" viewBox="0 0 42 24" fill="none" xmlns="http://www.w3.org/2000/svg">
<path d="M5.27078 0.031148C3.97099 0.246997 3.02782 1.56086 3.25306 2.85127C3.48298 4.19798 4.764 5.113 6.09664 4.88307C8.04867 4.54522 8.80883 2.12864 7.40581 0.72562C6.84742 0.167227 6.03564 -0.0955462 5.27078 0.031148ZM6.41103 0.880469C7.40112 1.34032 7.72959 2.55096 7.11958 3.45659C6.9225 3.74282 6.73011 3.89767 6.35941 4.07129C6.13418 4.17921 6.02625 4.19798 5.66963 4.19798C5.28486 4.19798 5.21447 4.1839 4.93293 4.04313C4.29476 3.72874 3.94284 3.16566 3.94284 2.4618C3.94284 1.98787 4.06953 1.64063 4.36515 1.31217C4.90477 0.711543 5.69309 0.542618 6.41103 0.880469Z" fill="black"/>
<path d="M2.81655 5.68095C2.32854 5.79826 1.84992 6.2018 1.62468 6.68512L1.4933 6.96666L1.47922 10.2185C1.46984 12.5177 1.48391 13.5266 1.52145 13.6674C1.59184 13.9302 1.95315 14.2868 2.23 14.3619C2.34262 14.39 2.53031 14.4041 2.65701 14.39L2.87755 14.3619V17.8952C2.87755 21.9072 2.85878 21.7101 3.25294 22.1043C3.86295 22.7143 4.88589 22.5219 5.23782 21.7242C5.31759 21.5459 5.33636 21.3817 5.35513 20.6543L5.37859 19.8003H5.69298H6.00737L6.03083 20.6543C6.0496 21.3817 6.06837 21.5459 6.14814 21.7242C6.50007 22.5219 7.523 22.7143 8.13301 22.1043C8.44271 21.7899 8.5084 21.5693 8.5084 20.7998C8.5084 20.4573 8.5131 20.1757 8.52248 20.1757C8.53187 20.1757 8.68671 20.2273 8.86502 20.2883C9.79412 20.6027 10.4323 21.1236 10.4323 21.56C10.4323 22.2591 9.01987 22.9771 7.14761 23.2351C6.57045 23.3102 4.8155 23.3102 4.23834 23.2351C2.65232 23.0193 1.35253 22.4562 1.04752 21.8603C0.995905 21.7617 0.953674 21.621 0.953674 21.5459C0.953674 21.2503 1.35722 20.8186 1.87807 20.5558C2.18308 20.4009 2.25346 20.1992 2.07515 19.9692C1.925 19.7816 1.74199 19.805 1.29622 20.0819C-0.0504953 20.9124 -0.0927267 22.1137 1.19768 22.9724C1.83584 23.3994 2.87286 23.7419 4.03187 23.9155C4.79673 24.0282 6.57045 24.0282 7.33531 23.9155C9.94896 23.5308 11.4364 22.4468 11.0704 21.1986C10.8827 20.5417 10.085 19.9317 8.93072 19.561L8.53187 19.4343L8.51779 16.8957L8.5084 14.3572L8.71956 14.39C9.20288 14.4557 9.73311 14.1132 9.85981 13.6533C9.90673 13.4938 9.91612 12.6773 9.90673 10.2044L9.89266 6.96666L9.74719 6.66166C9.5595 6.27219 9.26857 5.98126 8.88379 5.79826L8.57879 5.65279L5.78682 5.64341C4.25242 5.63872 2.91509 5.65749 2.81655 5.68095ZM8.70079 6.49742C8.81341 6.57719 8.96826 6.73204 9.04803 6.84466L9.1888 7.04643L9.20288 10.256L9.21695 13.4656L9.09964 13.5829C8.94949 13.7331 8.77118 13.7331 8.62571 13.5829L8.5084 13.4703V10.3686V7.26697L8.39109 7.15436C8.33009 7.08866 8.22217 7.03705 8.15648 7.03705C8.09078 7.03705 7.98286 7.08866 7.92186 7.15436L7.80455 7.26697V14.3196C7.80455 21.1376 7.79985 21.377 7.71539 21.5177C7.53708 21.8134 7.11477 21.8462 6.89423 21.5787L6.77222 21.4333V17.4401C6.77222 15.0188 6.75345 13.3811 6.7253 13.2826C6.65022 13.0151 6.59861 13.0011 5.69298 13.0011C4.78735 13.0011 4.73573 13.0151 4.66065 13.2826C4.6325 13.3811 4.61373 15.0188 4.61373 17.4401V21.4333L4.49173 21.5787C4.27119 21.8462 3.84887 21.8134 3.67056 21.5177C3.5861 21.377 3.58141 21.1376 3.58141 14.3196V7.26697L3.4641 7.15436C3.4031 7.08866 3.29517 7.03705 3.22948 7.03705C3.16378 7.03705 3.05586 7.08866 2.99486 7.15436L2.87755 7.26697V10.3686V13.4703L2.76024 13.5829C2.61478 13.7331 2.43647 13.7331 2.291 13.5829L2.17369 13.4703V10.3593C2.17369 8.27114 2.19246 7.1872 2.22531 7.0652C2.291 6.83058 2.61478 6.48804 2.85409 6.40358C3.00894 6.34727 3.50164 6.33788 5.77275 6.34727L8.49902 6.35665L8.70079 6.49742ZM6.02144 16.3983V19.0965H5.69298H5.36451V16.3983V13.7002H5.69298H6.02144V16.3983Z" fill="black"/>
<path d="M26.3535 16L28.4175 13.024L26.3535 10.048H27.4455L29.1135 12.508L30.7935 10.048H31.8735L29.8095 13.024L31.8735 16H30.7935L29.1135 13.54L27.4455 16H26.3535ZM37.7541 16V14.2H33.4941V13.42L37.5741 7.6H38.7501V13.312H39.9981V14.2H38.7501V16H37.7541ZM34.6101 13.312H37.8021V8.716L34.6101 13.312Z" fill="black"/>
</svg>
