<svg width="33" height="32" viewBox="0 0 33 32" fill="none" xmlns="http://www.w3.org/2000/svg">
<path d="M16.1387 0.115023C15.4874 0.283976 14.9676 0.584337 14.4979 1.05365C13.4145 2.1362 13.1265 3.7569 13.7715 5.15233C13.8529 5.32128 14.141 5.76556 14.4165 6.14101L14.9175 6.81057L14.9551 7.46135C14.9739 7.81803 15.0302 8.20599 15.0803 8.32489C15.2181 8.64402 15.5312 8.97567 15.8632 9.13836C16.1262 9.26977 16.2452 9.28229 17.0342 9.28229C17.8233 9.28229 17.9423 9.26977 18.2053 9.13836C18.5372 8.97567 18.8504 8.64402 18.9881 8.31863C19.0382 8.19348 19.1009 7.81177 19.1134 7.46761L19.151 6.84186L19.6144 6.2161C20.3847 5.1711 20.6352 4.52657 20.6352 3.57543C20.6352 2.63055 20.2594 1.74198 19.5705 1.05365C18.6687 0.152569 17.3662 -0.20411 16.1387 0.115023ZM18.1364 1.28518C18.8754 1.64812 19.4015 2.33018 19.5705 3.14366C19.7271 3.91959 19.5142 4.60166 18.8128 5.55281L18.3494 6.17856L17.9611 6.18482H17.5666V5.6279V5.07724L17.8734 4.88951C18.6374 4.41394 18.8003 3.30636 18.2116 2.61803C17.8797 2.23632 17.5603 2.0924 17.0342 2.0924C16.5082 2.0924 16.1888 2.23632 15.8632 2.61803C15.2494 3.32513 15.431 4.44523 16.2326 4.91454L16.5019 5.07098V5.6279V6.18482H16.1137L15.7191 6.17856L15.2557 5.55281C14.7484 4.86448 14.5293 4.40142 14.4666 3.86328C14.3539 2.93091 14.8925 1.87964 15.7379 1.3853C16.1888 1.12248 16.4831 1.05365 17.1344 1.07242C17.6605 1.08494 17.7795 1.10997 18.1364 1.28518ZM17.3724 3.22501C17.4413 3.28759 17.5227 3.42525 17.5415 3.53789C17.5728 3.70684 17.5478 3.76941 17.3912 3.93211C17.2722 4.04474 17.1344 4.11984 17.0342 4.11984C16.8464 4.11984 16.5019 3.81322 16.5019 3.65052C16.5019 3.51286 16.671 3.19998 16.765 3.16243C16.9403 3.08734 17.2472 3.12489 17.3724 3.22501ZM18.0675 7.59276C18.0675 7.8806 18.0425 7.96821 17.911 8.09336C17.7669 8.24354 17.7231 8.2498 17.0342 8.2498C16.3454 8.2498 16.3015 8.24354 16.1575 8.09336C16.026 7.96821 16.0009 7.8806 16.0009 7.59276V7.24859H17.0342H18.0675V7.59276Z" fill="#805840"/>
<path d="M16.6766 10.3711C16.5451 10.3961 16.3259 10.4712 16.1882 10.5338C16.0504 10.5964 14.6789 11.6789 13.1384 12.9429L10.3328 15.2332L10.3453 15.6211C10.3641 16.3533 10.815 17.0166 11.5289 17.3545L11.8671 17.5172V20.6397V23.7684H17.0336H22.2001V20.6397V17.5172L22.5508 17.3482C23.2585 17.0166 23.7031 16.3595 23.7219 15.6211L23.7345 15.2332L21.0103 12.993C19.238 11.5412 18.1546 10.6902 17.9104 10.5713C17.5033 10.3711 17.0461 10.296 16.6766 10.3711ZM17.5471 11.5162C17.6098 11.5663 18.7934 12.5299 20.1836 13.6625C21.5676 14.7889 22.7011 15.7338 22.7011 15.7588C22.7011 15.8652 22.4005 16.2406 22.2064 16.3658L21.9935 16.5097H17.0336H12.0737L11.8608 16.3658C11.6479 16.2219 11.3473 15.8402 11.3786 15.7463C11.4036 15.6712 16.5076 11.5037 16.6579 11.4349C16.8395 11.3535 17.4219 11.4036 17.5471 11.5162ZM21.1982 20.1391V22.7047H20.1648H19.1315L19.119 20.6522L19.1002 18.606H17.0336H14.967L14.9482 20.6522L14.9357 22.7047H13.9024H12.8691V20.1391V17.5735H17.0336H21.1982V20.1391ZM18.0669 21.1716V22.7047H17.0336H16.0003V21.1716V19.6385H17.0336H18.0669V21.1716Z" fill="#805840"/>
<path d="M28.0745 10.9028C27.4733 11.0592 27.4357 11.1093 26.1519 13.6811C24.8493 16.303 24.7929 16.4532 24.8055 17.5107C24.818 18.0363 24.8493 18.2679 24.9808 18.6684C25.4755 20.1639 26.8533 21.1651 28.4001 21.1588C29.4209 21.1526 30.21 20.8272 30.9427 20.1076C31.8695 19.2002 32.2327 17.8799 31.9384 16.4782C31.8695 16.1466 31.5814 15.5083 30.7298 13.7875C30.1098 12.5485 29.5274 11.4409 29.4334 11.3283C29.1015 10.9341 28.5817 10.7776 28.0745 10.9028ZM28.5567 11.9165C28.6694 11.9603 30.6609 15.8838 30.8487 16.4407C31.0178 16.9288 31.0116 17.9487 30.8362 18.4181C30.4667 19.4067 29.6276 20.045 28.588 20.1201C27.3981 20.214 26.2709 19.4255 25.9327 18.2679C25.8012 17.8298 25.8012 17.0039 25.9327 16.5721C26.0392 16.2091 28.0369 12.173 28.1997 11.9853C28.2999 11.8727 28.3876 11.8539 28.5567 11.9165Z" fill="#805840"/>
<path d="M3.16255 11.5412C3.12497 11.6288 3.09992 11.7227 3.09992 11.7477C3.09992 11.7727 3.06235 11.8416 3.01851 11.9042C2.94336 12.0043 2.92457 12.0043 2.6365 11.8729L2.32964 11.7415L1.34017 12.7301L0.356961 13.7126L0.500998 14.0442L0.645035 14.3696L0.325649 14.4885L0 14.6011V16.0091V17.417L0.325649 17.5297L0.645035 17.6486L0.500998 17.9739L0.356961 18.3056L1.34017 19.288L2.32964 20.2767L2.63024 20.1453C2.79932 20.0702 2.95589 20.0327 2.9872 20.064C3.01225 20.089 3.07487 20.2204 3.11871 20.3581L3.20639 20.6084L4.6217 20.6271L6.03076 20.6396L6.13722 20.3268C6.19358 20.1578 6.26873 20.0139 6.30005 20.0139C6.3251 20.0139 6.48166 20.0765 6.63822 20.1516L6.92629 20.2892L7.89071 19.3256C8.42302 18.7937 8.8614 18.3181 8.8614 18.2743C8.8614 18.2305 8.80503 18.0803 8.72989 17.9427C8.661 17.7987 8.6109 17.6798 8.62342 17.6673C8.63595 17.6548 8.78625 17.5922 8.95533 17.5234L9.26846 17.3983V16.0091V14.6199L8.95533 14.4948C8.78625 14.4259 8.63595 14.3634 8.62342 14.3508C8.6109 14.3383 8.661 14.2194 8.72989 14.0755C8.80503 13.9378 8.8614 13.7877 8.8614 13.7439C8.8614 13.7001 8.42302 13.2245 7.89071 12.6926L6.92629 11.7289L6.63822 11.8666C6.48166 11.9417 6.3251 12.0043 6.30005 12.0043C6.26873 12.0043 6.19358 11.8604 6.13722 11.6914L6.03076 11.3785H4.62797H3.22517L3.16255 11.5412ZM5.4233 12.7301C5.52976 13.0117 5.57986 13.0618 5.81157 13.1557C6.0746 13.2558 6.09965 13.2495 6.41277 13.1244L6.73842 12.9867L7.20184 13.4435L7.659 13.9003L7.52123 14.2257C7.37719 14.5386 7.37719 14.5511 7.48365 14.8202C7.57759 15.0579 7.62769 15.108 7.91576 15.2144L8.23515 15.3395V16.0028V16.6724L7.90324 16.81C7.61517 16.9289 7.5588 16.9853 7.47739 17.2168C7.38345 17.4671 7.38345 17.4921 7.52123 17.7987L7.659 18.1179L7.20184 18.5747L6.74468 19.0315L6.40651 18.8938C6.06833 18.7561 6.06207 18.7561 5.79279 18.875C5.55481 18.9751 5.50471 19.0315 5.41704 19.3005L5.31058 19.6072L4.64675 19.6259L3.98293 19.6447L3.80758 19.288C3.66355 18.9939 3.5884 18.9126 3.39426 18.8375C3.16881 18.7499 3.13124 18.7561 2.84316 18.8938L2.53004 19.0377L2.06035 18.5684L1.59693 18.1054L1.72844 17.7862C1.85995 17.4733 1.85995 17.4546 1.75975 17.1855C1.66582 16.9415 1.61572 16.8914 1.34017 16.7975L1.03331 16.6849V16.0153V15.352L1.35896 15.1956C1.63451 15.0642 1.70339 14.9954 1.77854 14.7764C1.86622 14.5261 1.86622 14.4948 1.72844 14.2132L1.59067 13.9253L2.05409 13.456L2.52378 12.9867L2.84942 13.1244C3.16881 13.262 3.17507 13.262 3.45062 13.1494C3.66981 13.0618 3.7387 12.993 3.79506 12.8178C3.94536 12.361 3.91404 12.3735 4.64675 12.3922L5.30431 12.411L5.4233 12.7301Z" fill="#805840"/>
<path d="M3.79513 13.5683C1.97901 14.2253 1.45922 16.4655 2.81192 17.8234C3.85149 18.8684 5.57367 18.8184 6.54435 17.717C7.59645 16.5219 7.33342 14.6821 5.99952 13.8311C5.37953 13.4369 4.45895 13.3305 3.79513 13.5683ZM5.35448 14.6509C6.6195 15.3016 6.32516 17.229 4.91611 17.5231C4.25229 17.6607 3.5321 17.2978 3.2315 16.672C3.05615 16.3154 3.05615 15.7084 3.22524 15.3517C3.60725 14.557 4.56541 14.2441 5.35448 14.6509Z" fill="#805840"/>
<path d="M16.408 24.8382C15.7254 24.9133 15.2056 25.0697 14.5293 25.4014C13.9719 25.6704 13.0576 26.3212 13.0576 26.4464C13.0576 26.4714 13.2079 26.6466 13.3958 26.8281L13.734 27.1597L14.1535 26.8406C14.6671 26.4464 15.1305 26.2086 15.7505 26.0083C16.4268 25.8018 17.6417 25.8018 18.3181 26.0083C18.9318 26.2023 19.4015 26.4464 19.9213 26.8343L20.3409 27.1597L20.6916 26.8093L21.036 26.4651L20.8857 26.2962C20.4473 25.8331 19.3264 25.2136 18.5373 25.0009C18.1866 24.907 17.147 24.7631 16.9403 24.7756C16.8902 24.7819 16.6523 24.8069 16.408 24.8382Z" fill="#805840"/>
<path d="M16.5768 26.9034C15.8879 26.991 15.2429 27.2663 14.7607 27.6855L14.4851 27.9171L14.8483 28.28L15.2053 28.6429L15.4307 28.4615C15.556 28.3614 15.8253 28.1987 16.0319 28.1048C16.3638 27.9484 16.4828 27.9296 17.0339 27.9296C17.585 27.9296 17.704 27.9484 18.0359 28.1048C18.2426 28.1987 18.5119 28.3614 18.6371 28.4615L18.8626 28.6429L19.2195 28.28L19.5765 27.9171L19.326 27.6918C18.6684 27.0973 17.56 26.7845 16.5768 26.9034Z" fill="#805840"/>
<path d="M16.7712 28.962C16.6272 28.987 16.3767 29.0809 16.2139 29.1872C15.2181 29.8005 15.287 31.3023 16.3391 31.8592C16.7023 32.0469 17.3662 32.0469 17.7294 31.8592C18.0613 31.684 18.3995 31.2898 18.4934 30.9706C18.8378 29.8255 17.9548 28.7993 16.7712 28.962ZM17.3912 30.1509C17.5478 30.3136 17.5728 30.3762 17.5415 30.5451C17.4914 30.8017 17.2973 30.9644 17.0343 30.9644C16.7712 30.9644 16.5771 30.8017 16.527 30.5451C16.4957 30.3762 16.5207 30.3136 16.6773 30.1509C16.7963 30.0383 16.9341 29.9632 17.0343 29.9632C17.1345 29.9632 17.2722 30.0383 17.3912 30.1509Z" fill="#805840"/>
</svg>
