<svg width="33" height="32" viewBox="0 0 33 32" fill="none" xmlns="http://www.w3.org/2000/svg">
<g clip-path="url(#clip0_800_766)">
<path d="M0.519824 0.4875C0.426074 0.59375 0.413574 0.975 0.413574 4.7125C0.413574 7.425 0.438574 8.8625 0.476074 8.94375C0.538574 9.0625 0.669824 9.0625 5.83857 9.0625C9.87607 9.0625 11.1573 9.04375 11.2136 8.9875C11.2698 8.93125 11.2886 7.9 11.2886 4.74375C11.2886 1.03125 11.2761 0.5625 11.1886 0.475C11.1011 0.3875 10.5323 0.375 5.85732 0.375C0.863574 0.375 0.613574 0.38125 0.519824 0.4875ZM5.47607 4.71875V8.375L3.30107 8.3625L1.13232 8.34375L1.11357 4.78125C1.10732 2.81875 1.11357 1.18125 1.13232 1.1375C1.15107 1.08125 1.65107 1.0625 3.31982 1.0625H5.47607V4.71875ZM10.5886 4.73125L10.6011 8.375H8.41357H6.22607V4.71875V1.0625L8.40107 1.075L10.5698 1.09375L10.5886 4.73125Z" fill="#805840"/>
<path d="M4.52003 4.11251C4.37003 4.27501 4.37003 5.19376 4.51378 5.33751C4.62628 5.45001 4.80753 5.46251 4.98253 5.37501C5.08878 5.31876 5.10128 5.23751 5.10128 4.75626C5.10128 4.30626 5.08253 4.18751 4.98878 4.10626C4.83878 3.96876 4.64503 3.97501 4.52003 4.11251Z" fill="#805840"/>
<path d="M6.70732 4.1125C6.62607 4.2 6.60107 4.35 6.60107 4.7375C6.60107 5.2875 6.67607 5.4375 6.94482 5.4375C7.21357 5.4375 7.28857 5.2875 7.28857 4.725C7.28857 4.3 7.26982 4.1875 7.17607 4.10625C7.02607 3.96875 6.83232 3.975 6.70732 4.1125Z" fill="#805840"/>
<path d="M13.2515 0.4625C13.139 0.55 13.1327 0.68125 13.1015 4.4L13.0702 8.25L11.4765 9.675L9.88272 11.1L9.86397 11.9625C9.85147 12.7062 9.86397 12.8437 9.95147 12.9437C10.0515 13.0562 10.289 13.0625 16.039 13.0625C21.7515 13.0625 22.0265 13.0562 22.1202 12.95C22.2077 12.8562 22.2265 12.6875 22.2265 11.9875V11.1375L21.8327 10.775C21.614 10.5687 20.889 9.91875 20.2077 9.31875L18.9765 8.225L18.964 4.3875C18.9452 0.675 18.939 0.55 18.8265 0.4625C18.6452 0.33125 13.4327 0.33125 13.2515 0.4625ZM18.2265 4.825C18.2452 7.19375 18.2827 8.575 18.3202 8.6125C18.3577 8.64375 18.9327 9.15625 19.6015 9.75C20.2702 10.3437 20.8327 10.8562 20.839 10.8875C20.8515 10.9125 19.5702 10.9375 17.9952 10.9375C15.8452 10.9375 15.1077 10.9562 15.0515 11.0125C14.9265 11.1375 14.9577 11.4875 15.0952 11.5625C15.1765 11.6 16.3077 11.625 18.3452 11.625H21.4765V12V12.375H16.039H10.6015V12V11.625H12.114C13.4327 11.625 13.639 11.6125 13.739 11.5187C13.8765 11.3937 13.8827 11.1687 13.7515 11.0375C13.6702 10.9562 13.464 10.9375 12.439 10.9375C11.7702 10.9375 11.2265 10.9187 11.2327 10.8875C11.2327 10.8625 11.689 10.4437 12.2452 9.95625C12.8015 9.4625 13.389 8.94375 13.5577 8.79375L13.8515 8.51875V4.83125C13.8515 2.80625 13.8702 1.125 13.8952 1.10625C13.9202 1.08125 14.8952 1.06875 16.064 1.075L18.1952 1.09375L18.2265 4.825Z" fill="#805840"/>
<path d="M20.8886 0.475C20.8011 0.5625 20.7886 1.03125 20.7886 4.74375C20.7886 7.9 20.8073 8.93125 20.8636 8.9875C20.9198 9.04375 22.1948 9.0625 26.2011 9.0625C30.9073 9.0625 31.4761 9.05 31.5636 8.9625C31.6511 8.875 31.6636 8.40625 31.6636 4.725C31.6636 0.7875 31.6573 0.575 31.5511 0.48125C31.4448 0.38125 30.9823 0.375 26.2073 0.375C21.5448 0.375 20.9761 0.3875 20.8886 0.475ZM25.8511 4.71875V8.375H23.6636H21.4761V4.7625C21.4761 2.775 21.4948 1.125 21.5198 1.10625C21.5386 1.08125 22.5261 1.0625 23.7073 1.0625H25.8511V4.71875ZM30.9448 4.71875V8.34375L28.7761 8.3625L26.6011 8.375V4.71875V1.0625L28.7761 1.075L30.9448 1.09375V4.71875Z" fill="#805840"/>
<path d="M24.8948 4.1125C24.8136 4.2 24.7886 4.35 24.7886 4.7375C24.7886 5.2875 24.8636 5.4375 25.1323 5.4375C25.4011 5.4375 25.4761 5.2875 25.4761 4.725C25.4761 4.3 25.4573 4.1875 25.3636 4.10625C25.2136 3.96875 25.0198 3.975 24.8948 4.1125Z" fill="#805840"/>
<path d="M27.0761 4.10003C27.0011 4.17503 26.9761 4.33128 26.9761 4.75003C26.9761 5.23753 26.9886 5.31878 27.0948 5.37503C27.2761 5.46878 27.4448 5.45003 27.5573 5.32503C27.7136 5.15003 27.7073 4.25003 27.5511 4.10628C27.4073 3.97503 27.2011 3.96878 27.0761 4.10003Z" fill="#805840"/>
<path d="M29.1011 14.9813C28.6198 15.1625 28.4136 15.5563 28.4136 16.2813C28.4136 16.9313 28.4698 17.0625 28.7448 17.0625C29.0511 17.0625 29.1011 16.9688 29.1011 16.4313C29.1011 16.0438 29.1261 15.925 29.2323 15.7875C29.3823 15.5938 29.5573 15.5813 29.7261 15.75C29.8448 15.8688 29.8511 15.9563 29.8511 17.5625V19.25H25.6511H21.4448L21.4636 18.7188L21.4823 18.1875H22.1011C22.6823 18.1875 22.7261 18.1813 22.8386 18.0313C22.9823 17.85 22.9573 17.6625 22.7698 17.5313C22.6573 17.45 22.2198 17.4375 20.0323 17.4375C17.5573 17.4375 17.4198 17.4438 17.2823 17.5563C17.1386 17.6688 17.1323 17.7125 17.1323 18.4625V19.25H15.9573C14.8573 19.25 14.7761 19.2438 14.8198 19.1375C14.8948 18.9375 14.9761 18.4188 14.9761 18.1188V17.8125H15.2136C15.8011 17.8125 15.8261 17.1625 15.2448 17.0813C15.0011 17.05 14.9886 17.0375 14.9573 16.7938C14.9386 16.65 14.8698 16.5 14.8136 16.4563C14.7261 16.3938 14.2386 16.375 12.7511 16.375C10.5573 16.375 10.6011 16.3688 10.6011 16.8188C10.6011 17.0563 10.5948 17.0625 10.3886 17.0625C10.1511 17.0625 9.85107 17.2688 9.85107 17.4313C9.85107 17.6625 10.0323 17.8125 10.3261 17.8125H10.6011V18.3125C10.6011 18.6125 10.6386 18.9063 10.6886 19.0313L10.7823 19.25H8.58857C6.50107 19.25 6.40107 19.2438 6.48857 19.1375C6.81982 18.7625 7.00107 17.975 6.96357 17.0813C6.93857 16.3875 6.92607 16.375 5.98232 16.375H5.26357L5.55732 16.075C5.71982 15.9125 5.85107 15.7188 5.85107 15.65C5.85107 15.4875 5.73232 15.3375 5.55107 15.2813C5.43232 15.2438 5.31982 15.325 4.82607 15.8063L4.25107 16.375H3.52607C2.94482 16.375 2.77607 16.3938 2.70107 16.475C2.61982 16.55 2.60107 16.725 2.60107 17.3688C2.60107 18.2438 2.67607 18.6063 2.93857 19.0063L3.10107 19.25H1.89482C0.907324 19.25 0.663574 19.2688 0.551074 19.35L0.413574 19.4438V25.4313C0.413574 31.15 0.419824 31.425 0.526074 31.5188C0.632324 31.6125 0.938574 31.625 3.66982 31.625C6.95107 31.625 6.93232 31.625 6.92607 31.2938C6.92607 30.9313 7.02607 30.9375 3.95107 30.925L1.13232 30.9063L1.11357 30.5438L1.09482 30.1875H16.0386H30.9823L30.9636 30.55L30.9448 30.9063L19.7573 30.9188C9.32607 30.9375 8.56357 30.9438 8.49482 31.0438C8.38232 31.1938 8.39482 31.4 8.52607 31.5188C8.63232 31.6188 9.51982 31.625 20.0511 31.625C31.0198 31.625 31.4636 31.6188 31.5573 31.5125C31.6511 31.4125 31.6636 31.2125 31.6636 29.9875C31.6636 28.7063 31.6511 28.575 31.5511 28.4813C31.4198 28.3625 31.2698 28.35 31.0948 28.4375C30.9948 28.4938 30.9761 28.575 30.9761 28.9688V29.4375H29.1323H27.2886V26.5313V23.625L29.1198 23.6375L30.9448 23.6563L30.9636 25.5625C30.9761 27.2688 30.9886 27.475 31.0823 27.55C31.2323 27.6563 31.4386 27.6438 31.5573 27.5125C31.6511 27.4063 31.6636 27.0313 31.6636 23.45C31.6636 18.8625 31.7261 19.25 31.0073 19.25H30.6011V17.5688C30.6011 16.4875 30.5761 15.8188 30.5323 15.6813C30.4448 15.4313 30.2011 15.15 29.9636 15.025C29.7948 14.9375 29.2823 14.9125 29.1011 14.9813ZM6.19482 17.6563C6.18857 18.1063 6.16357 18.2688 6.05107 18.475C5.79482 18.975 5.33232 19.25 4.75732 19.25C4.10107 19.25 3.56982 18.8563 3.38232 18.225C3.28857 17.9063 3.25732 17.1813 3.33232 17.1C3.35732 17.0813 4.00732 17.0688 4.78232 17.075L6.19482 17.0938V17.6563ZM14.2136 17.875C14.2323 18.7188 14.1823 18.925 13.9261 19.125C13.7886 19.2375 13.6698 19.25 12.8136 19.25C11.3948 19.25 11.3323 19.2 11.3011 18.0125C11.2886 17.5938 11.2948 17.2063 11.3136 17.1563C11.3448 17.075 11.5511 17.0625 12.7698 17.075L14.1948 17.0938L14.2136 17.875ZM20.7886 18.5813C20.7886 19.2625 20.8136 19.25 19.3386 19.25C17.8261 19.25 17.8511 19.2625 17.8511 18.6125V18.1875H19.3198H20.7886V18.5813ZM9.10107 22.1875V24.375L5.11982 24.3625L1.13232 24.3438L1.11357 22.1688L1.10107 20H5.10107H9.10107V22.1875ZM22.2261 24.7188V29.4375H21.5073H20.7886V28.325C20.7886 27.0875 20.7511 26.9375 20.4136 26.9375C20.1198 26.9375 20.0386 27.075 20.0386 27.5688V28H16.0386H12.0386V25.8125V23.625H16.0386H20.0386V24.7813C20.0386 25.8563 20.0448 25.9438 20.1636 26.0625C20.2948 26.1938 20.4573 26.2188 20.5761 26.1375C20.7573 26.0188 20.7886 25.7875 20.7886 24.5188C20.7886 23.4375 20.7698 23.1938 20.6886 23.075L20.5948 22.9375H16.0386H11.4823L11.3886 23.075C11.3011 23.2 11.2886 23.6125 11.2886 26.325V29.4375H10.5698H9.85107V24.7188V20H16.0386H22.2261V24.7188ZM30.9636 21.45L30.9448 22.9063L26.9636 22.925L22.9761 22.9375V21.4688V20H26.9761H30.9761L30.9636 21.45ZM26.6011 26.5313V29.4375H24.7886H22.9761V26.5313V23.625H24.7886H26.6011V26.5313ZM9.10107 27.25V29.4375H5.10107H1.10107V27.2938C1.10107 26.1125 1.11982 25.125 1.14482 25.1063C1.16357 25.0813 2.96357 25.0625 5.14482 25.0625H9.10107V27.25ZM20.0386 29.0938V29.4375H16.0386H12.0386V29.0938V28.75H16.0386H20.0386V29.0938Z" fill="#805840"/>
<path d="M4.16357 21.9375C4.09482 22.0062 4.03857 22.1187 4.03857 22.1875C4.03857 22.2562 4.09482 22.3687 4.16357 22.4375C4.27607 22.55 4.36982 22.5625 5.13232 22.5625C5.89482 22.5625 5.98857 22.55 6.10107 22.4375C6.16982 22.3687 6.22607 22.2562 6.22607 22.1875C6.22607 22.1187 6.16982 22.0062 6.10107 21.9375C5.98857 21.825 5.89482 21.8125 5.13232 21.8125C4.36982 21.8125 4.27607 21.825 4.16357 21.9375Z" fill="#805840"/>
<path d="M12.6947 20.4563C12.4259 20.5813 12.1134 20.9563 12.0634 21.2188C11.8697 22.2813 13.1322 22.9813 13.8884 22.225C14.3759 21.7375 14.2947 20.975 13.7134 20.5438C13.5009 20.3875 12.9572 20.3375 12.6947 20.4563ZM13.4009 21.2375C13.5697 21.4563 13.4072 21.8125 13.1322 21.8125C12.7947 21.8125 12.6697 21.2938 12.9697 21.15C13.1384 21.0625 13.2822 21.0938 13.4009 21.2375Z" fill="#805840"/>
<path d="M15.5264 20.5002C15.2014 20.6752 15.0202 20.9564 14.9889 21.3564C14.9577 21.7564 15.0452 22.0002 15.3264 22.2502C15.6264 22.5064 15.9702 22.6002 16.2889 22.5064C16.5952 22.4189 16.9327 22.1314 17.0389 21.8752C17.1514 21.6002 17.0889 21.0627 16.9202 20.8189C16.6202 20.4002 15.9889 20.2564 15.5264 20.5002ZM16.3264 21.2814C16.4077 21.4127 16.4202 21.4752 16.3639 21.5939C16.2264 21.8939 15.7702 21.8502 15.6889 21.5252C15.6014 21.1689 16.1202 20.9689 16.3264 21.2814Z" fill="#805840"/>
<path d="M18.507 20.4624C18.4007 20.5062 18.2257 20.6437 18.1195 20.7687C17.607 21.3562 17.907 22.2937 18.6695 22.4999C19.682 22.7749 20.457 21.5562 19.7695 20.7687C19.4382 20.3937 18.9382 20.2749 18.507 20.4624ZM19.2132 21.2062C19.3195 21.2874 19.307 21.5624 19.182 21.6999C18.9632 21.9437 18.5695 21.7437 18.6132 21.3999C18.6445 21.1124 18.9632 21.0124 19.2132 21.2062Z" fill="#805840"/>
<path d="M13.5578 24.5375C13.464 24.6875 13.464 24.7187 13.5453 24.8687L13.639 25.0312H16.039H18.439L18.5328 24.8687C18.614 24.7187 18.614 24.6875 18.5203 24.5375L18.414 24.375H16.039H13.664L13.5578 24.5375Z" fill="#805840"/>
<path d="M26.4758 21.1C26.2195 21.2 26.1445 21.5375 26.3383 21.7062C26.5133 21.8625 27.4133 21.8562 27.557 21.7C27.6883 21.5562 27.6945 21.375 27.5758 21.2187C27.507 21.1187 27.4008 21.0937 27.0258 21.0812C26.7758 21.075 26.5258 21.0812 26.4758 21.1Z" fill="#805840"/>
<path d="M25.6011 25.9375C25.5011 26.0375 25.4761 26.1437 25.4761 26.5187C25.4761 27.05 25.5761 27.25 25.8448 27.25C26.1386 27.25 26.2261 27.0875 26.2261 26.5437C26.2261 26.025 26.1198 25.8125 25.8511 25.8125C25.7823 25.8125 25.6698 25.8687 25.6011 25.9375Z" fill="#805840"/>
<path d="M4.13811 27.0375C4.00686 27.1688 4.01311 27.3938 4.15061 27.5188C4.24436 27.6063 4.41311 27.625 5.15061 27.625C5.98811 27.625 6.03811 27.6188 6.12561 27.4875C6.25686 27.3063 6.25061 27.1688 6.11311 27.0438C5.94436 26.8938 4.28186 26.8875 4.13811 27.0375Z" fill="#805840"/>
<path d="M27.7886 25.9375C27.6886 26.0375 27.6636 26.1437 27.6636 26.5187C27.6636 27.0562 27.7636 27.25 28.0386 27.25C28.3136 27.25 28.4136 27.0562 28.4136 26.5187C28.4136 26.025 28.3011 25.8125 28.0386 25.8125C27.9698 25.8125 27.8573 25.8687 27.7886 25.9375Z" fill="#805840"/>
</g>
<defs>
<clipPath id="clip0_800_766">
<rect width="32" height="32" fill="white" transform="translate(0.0385742)"/>
</clipPath>
</defs>
</svg>
