<svg width="33" height="32" viewBox="0 0 33 32" fill="none" xmlns="http://www.w3.org/2000/svg">
<g clip-path="url(#clip0_800_755)">
<path d="M12.2636 1.96877C10.8698 3.05002 9.71357 3.93752 9.69482 3.93752C9.67607 3.93752 9.66357 3.65002 9.66357 3.29377C9.66357 2.54377 9.58857 2.22502 9.36357 1.98127C9.03232 1.62502 9.01357 1.62502 6.97607 1.62502C4.85107 1.62502 4.75732 1.64377 4.46982 2.10627L4.31982 2.34377L4.30107 5.25627L4.28232 8.17502L2.28232 9.72502C0.657324 10.9938 0.263574 11.3313 0.163574 11.5375C0.0510742 11.7688 0.0385742 11.925 0.0385742 13.4625C0.0385742 14.875 0.0573242 15.1688 0.138574 15.35C0.357324 15.8063 0.882324 16.0625 1.34482 15.9375C1.49482 15.9 1.90732 15.6313 2.39482 15.25L3.19482 14.6313L3.22607 22.7063C3.25732 30.3125 3.26357 30.7938 3.36982 31.0313C3.51357 31.3438 3.80732 31.6563 4.13232 31.8313L4.38232 31.9688L14.0323 31.9875C23.1823 32 23.7011 31.9938 23.9073 31.8875C24.3636 31.6625 29.7011 27.7688 30.1823 27.3125C31.0073 26.5313 31.5386 25.65 31.8573 24.5313C32.0011 24.0375 32.0011 23.9938 32.0198 19.2875C32.0386 15.2313 32.0323 14.5313 31.9511 14.4125C31.8948 14.325 31.5011 14.1125 30.8886 13.85L29.9136 13.4188V12.6125C29.9136 11.6938 29.8636 11.5188 29.5011 11.1813C29.3636 11.0563 26.0823 8.48752 22.2073 5.47502C16.5823 1.10627 15.1198 2.39373e-05 14.9761 2.39373e-05C14.8323 2.39373e-05 14.2511 0.425024 12.2636 1.96877ZM21.9761 6.65627L28.8511 12.0063V12.475C28.8511 12.8313 28.8323 12.9438 28.7761 12.9188C28.7323 12.9063 27.5636 12.3938 26.1761 11.7875C24.7948 11.1813 23.6011 10.6875 23.5323 10.6875C23.4573 10.6875 21.6886 9.35002 19.3636 7.53752C17.1386 5.80627 15.2511 4.35627 15.1761 4.31877C15.0948 4.27502 14.9573 4.25627 14.8761 4.27502C14.7948 4.30002 11.6698 6.69377 7.93232 9.60002L1.13232 14.8875L1.11357 13.4625C1.10107 12.1688 1.10732 12.025 1.20732 11.9313C1.62607 11.5313 14.9511 1.25002 15.0198 1.27502C15.0636 1.29377 18.1948 3.71252 21.9761 6.65627ZM8.58857 3.76252L8.56982 4.83752L7.06982 6.01252C6.24482 6.66252 5.51982 7.21877 5.46357 7.25002C5.35732 7.31252 5.35107 7.18752 5.35107 5.00002V2.68752H6.97607H8.60107L8.58857 3.76252ZM18.6323 8.31252C20.6073 9.84377 22.2136 11.1188 22.2073 11.1438C22.2011 11.175 20.6198 11.8813 18.6948 12.725C16.6636 13.6063 15.1511 14.3063 15.0886 14.3813C14.9886 14.5 14.9761 14.7188 14.9761 16.85V19.1875H13.0261C11.8886 19.1875 10.9761 19.2125 10.8386 19.25C10.4323 19.3625 10.0261 19.6875 9.83857 20.0563L9.66357 20.3875V25.6625V30.9375H7.16982H4.66982L4.49482 30.7875L4.31982 30.6375L4.30107 22.2063L4.28857 13.7813L9.61357 9.64377C12.5448 7.36252 14.9698 5.50627 15.0011 5.51877C15.0261 5.52502 16.6636 6.78752 18.6323 8.31252ZM27.2636 13.425L30.9448 15.0375V19.4438C30.9448 23.5188 30.9386 23.875 30.8323 24.2438C30.5698 25.1563 30.1198 25.9188 29.4698 26.5313C29.0136 26.9625 23.6448 30.8438 23.5073 30.8438C23.4573 30.8438 22.1386 29.925 20.5761 28.7938C17.4448 26.5375 17.0948 26.2313 16.6198 25.3375C16.4761 25.0688 16.2948 24.6188 16.2136 24.3438L16.0698 23.8438V19.4438V15.0375L19.7261 13.4313C21.7386 12.55 23.4261 11.8188 23.4823 11.8188C23.5323 11.8125 25.2323 12.5375 27.2636 13.425ZM14.9886 22.1375C15.0198 24.2813 15.0636 24.5625 15.5386 25.5563C16.0761 26.6688 16.6011 27.2313 18.1511 28.3625L19.2261 29.1438V30.0375V30.9375H14.9761H10.7261V25.7625C10.7323 21.8 10.7448 20.5688 10.8073 20.4938C10.9823 20.2688 11.1011 20.2563 13.0511 20.25H14.9636L14.9886 22.1375ZM21.0073 30.425C21.3198 30.65 21.5948 30.8563 21.6323 30.8813C21.6636 30.9125 21.3823 30.9375 20.9886 30.9375H20.2886V30.4313C20.2886 30.05 20.3073 29.9438 20.3698 29.975C20.4073 30 20.7011 30.2 21.0073 30.425Z" fill="#805840"/>
<path d="M20.3511 14.3125C18.3386 15.2 17.3386 15.675 17.2448 15.7875L17.1011 15.9438V19.675C17.1011 23.825 17.1136 23.925 17.5073 24.7375C17.8823 25.4875 18.2136 25.7813 20.8573 27.6875C22.8886 29.15 23.3386 29.45 23.5073 29.45C23.6823 29.45 24.1323 29.15 26.1573 27.6875C29.0886 25.575 29.3011 25.3625 29.7198 24.2313L29.8823 23.7813L29.9011 19.8688L29.9198 15.95L29.7761 15.7875C29.6011 15.5938 23.8823 13.0625 23.5386 13.025C23.3636 13.0125 22.7261 13.2688 20.3511 14.3125ZM26.0198 15.2125C27.3886 15.8125 28.5823 16.3375 28.6823 16.3813L28.8511 16.4563V19.8438C28.8511 21.7875 28.8261 23.3688 28.7886 23.5563C28.7073 23.975 28.4698 24.4688 28.1948 24.8C27.9948 25.0313 23.6261 28.25 23.5073 28.25C23.4073 28.25 19.0448 25.05 18.8636 24.85C18.5761 24.5188 18.3698 24.1375 18.2636 23.7188C18.1761 23.4063 18.1636 22.8125 18.1636 19.9V16.4563L19.1823 16.0063C22.6823 14.4688 23.4511 14.1313 23.4886 14.1313C23.5136 14.125 24.6573 14.6125 26.0198 15.2125Z" fill="#805840"/>
<path d="M26.4261 17.1626C26.3448 17.2188 25.4073 18.5751 24.3386 20.1751C23.2698 21.7813 22.3823 23.1126 22.3573 23.1376C22.3386 23.1563 21.9136 22.8126 21.4198 22.3688C20.6136 21.6438 20.5011 21.5626 20.2886 21.5626C19.7886 21.5626 19.6073 22.1188 19.9948 22.5001C20.6011 23.1001 22.1886 24.4751 22.3073 24.5063C22.6761 24.6001 22.6948 24.5751 24.9948 21.1313C26.2011 19.3251 27.2011 17.7626 27.2136 17.6688C27.2823 17.2251 26.7886 16.9063 26.4261 17.1626Z" fill="#805840"/>
</g>
<defs>
<clipPath id="clip0_800_755">
<rect width="32" height="32" fill="white" transform="translate(0.0385742)"/>
</clipPath>
</defs>
</svg>
