<svg width="33" height="32" viewBox="0 0 33 32" fill="none" xmlns="http://www.w3.org/2000/svg">
<g clip-path="url(#clip0_800_785)">
<path d="M15.5383 0.3125C15.2695 0.4625 5.00076 9.34375 4.83201 9.56875C4.51326 10.0062 4.68826 10.7375 5.18826 11.0312C5.41326 11.1625 5.53826 11.1875 5.93201 11.1875H6.41326V14.9375V18.6875H6.11326C5.82576 18.6875 5.81326 18.6812 5.66951 18.4062C5.58826 18.2562 5.42576 18.0562 5.31326 17.9687C4.88201 17.6375 4.79451 17.625 2.95701 17.625H1.25076L0.925758 17.7875C0.744508 17.875 0.519508 18.05 0.413258 18.175C0.0195076 18.6562 0.0320076 18.3875 0.0507576 24.9125L0.0695076 30.8437L0.207008 31.0937C0.363258 31.3875 0.669508 31.6875 0.975758 31.85C1.17576 31.9562 1.35701 31.9688 2.97576 31.9688C4.91326 31.9688 4.95076 31.9625 5.35076 31.5875L5.51326 31.4375L12.6633 31.425C19.807 31.4062 19.8195 31.4062 20.1695 31.275C20.3633 31.2 20.6133 31.0875 20.732 31.0312C21.3383 30.725 31.282 24.625 31.457 24.45C31.5695 24.3375 31.7383 24.1 31.832 23.9187C31.9758 23.6437 32.0008 23.5125 32.0008 23.0625C32.007 22.625 31.9758 22.475 31.8508 22.2187C31.5258 21.5562 30.8945 21.1312 30.157 21.075C29.7695 21.05 29.6508 21.0812 27.7508 21.7125C26.6508 22.075 25.732 22.375 25.707 22.375C25.682 22.375 25.6633 19.8562 25.6633 16.7812V11.1875H26.1445C26.5383 11.1875 26.6633 11.1625 26.8883 11.0312C27.3695 10.75 27.557 10.0437 27.2633 9.6C27.207 9.5125 26.8258 9.15 26.4195 8.8L25.6758 8.15625L25.6633 5.09375C25.657 1.875 25.6445 1.73125 25.3695 1.425C25.307 1.35625 25.1445 1.24375 25.007 1.18125C24.7883 1.08125 24.5758 1.0625 23.232 1.0625C21.8133 1.0625 21.682 1.06875 21.4383 1.19375C20.9508 1.425 20.8883 1.6125 20.8508 2.86875L20.8195 3.95L18.7695 2.18125C17.6383 1.20625 16.6258 0.35625 16.5195 0.29375C16.2633 0.15625 15.8133 0.1625 15.5383 0.3125ZM21.1945 5.6875L26.2945 10.0937L22.682 10.125C18.957 10.1562 18.857 10.1625 18.7633 10.4125C18.6883 10.6 18.7258 10.8625 18.8445 11.0062L18.9633 11.1562L21.7695 11.1875L24.5695 11.2187V16.9937V22.7687L22.8195 23.3562C21.857 23.675 21.0195 23.9562 20.9633 23.975C20.857 24.0062 20.8508 23.8687 20.8508 21.7312C20.8508 19.2375 20.8008 18.725 20.5008 17.9625C20.082 16.9187 19.1883 15.95 18.2008 15.4687C17.3883 15.0687 16.9695 14.9687 16.0383 14.9687C15.107 14.9687 14.6883 15.0687 13.8758 15.4687C12.8883 15.95 11.9945 16.9187 11.5758 17.9625C11.3758 18.475 11.2258 19.3062 11.2258 19.9437V20.4375L10.932 20.2875C10.7633 20.2062 10.4508 20.0062 10.232 19.8437C9.46326 19.275 8.73201 18.9437 7.91326 18.7875L7.50701 18.7125V14.9625V11.2187L8.18201 11.1875C8.80076 11.1562 8.87576 11.1437 8.98201 11.0062C9.14451 10.8062 9.13201 10.5437 8.95076 10.3312L8.80076 10.1562L7.28826 10.125L5.78201 10.0937L10.8945 5.675C13.707 3.24375 16.0258 1.2625 16.0508 1.26875C16.0758 1.275 18.3883 3.2625 21.1945 5.6875ZM24.5883 4.64375C24.6008 6.56875 24.582 7.13125 24.5258 7.1125C24.4883 7.1 23.882 6.59375 23.182 5.99375L21.9195 4.90625L21.9133 3.5125V2.125L23.2445 2.1375L24.5695 2.15625L24.5883 4.64375ZM16.9383 16.125C17.207 16.1937 17.5945 16.3375 17.807 16.45C18.3383 16.7312 19.0758 17.475 19.3383 18C19.7445 18.8062 19.7445 18.8312 19.7695 21.7312L19.7945 24.3625L19.5883 24.425C19.4758 24.4625 19.2508 24.5125 19.0883 24.5312L18.8008 24.575L18.832 23.9625C18.857 23.4625 18.8383 23.2687 18.7383 22.9625C18.5008 22.2125 17.9258 21.5437 17.2133 21.1812C16.5508 20.8437 16.2945 20.8125 14.4445 20.8125C13.5195 20.8125 12.6508 20.7937 12.5133 20.7687L12.2695 20.7312L12.307 19.9125C12.3445 19 12.4383 18.6 12.7383 18C13.0008 17.475 13.7383 16.7312 14.2695 16.45C15.0945 16.0125 16.057 15.9 16.9383 16.125ZM4.65076 18.8125C4.72576 18.8812 4.80076 19.0062 4.81951 19.0812C4.83826 19.1562 4.84451 21.7875 4.83826 24.925L4.81951 30.6375L4.64451 30.7875C4.46951 30.9375 4.46326 30.9375 2.96951 30.9375H1.46326L1.28201 30.7562L1.10076 30.575V24.8437C1.10076 19.9125 1.11326 19.0937 1.19451 18.9375C1.24451 18.8437 1.31951 18.75 1.36326 18.7312C1.40701 18.7125 2.13826 18.6937 2.98201 18.6937C4.43826 18.6875 4.51951 18.6937 4.65076 18.8125ZM7.80701 19.85C8.42576 19.9875 8.96951 20.25 9.57576 20.6875C10.2133 21.1562 10.8008 21.45 11.5133 21.6625C12.057 21.825 12.1195 21.8312 14.1633 21.8687L16.2633 21.9062L16.6758 22.1125C17.5945 22.5625 18.0195 23.5062 17.6633 24.2937L17.5445 24.5625H15.557C13.382 24.5625 13.0008 24.6125 12.1883 24.9687C11.6945 25.1875 10.9383 25.6625 10.8195 25.8312C10.682 26.0312 10.7008 26.3312 10.8695 26.4875C11.1195 26.7187 11.282 26.7125 11.6945 26.4625C12.357 26.0562 12.5633 25.95 12.9758 25.8C13.3758 25.6625 13.4445 25.6562 16.4445 25.625L19.507 25.5937L24.7195 23.85C30.3258 21.975 30.182 22.0125 30.5945 22.3062C30.832 22.4812 31.007 22.9187 30.9508 23.2187C30.9258 23.3437 30.8195 23.5437 30.707 23.6562C30.4758 23.9 20.5633 29.95 20.007 30.1875L19.632 30.3437L12.7758 30.3625L5.91326 30.375V25.0625V19.75H6.63826C7.07576 19.75 7.53201 19.7875 7.80701 19.85Z" fill="#805840"/>
<path d="M13.5699 7.08125C13.4262 7.2 13.3949 7.29375 13.3512 7.70625C13.2574 8.5375 12.8512 9.21875 12.2012 9.6625C11.8262 9.91875 11.2012 10.125 10.8074 10.125C10.5824 10.125 10.4949 10.1625 10.3449 10.3063C10.1512 10.5 10.1199 10.65 10.2324 10.8938C10.3262 11.0938 10.4887 11.1688 10.9324 11.2125C11.9262 11.3188 12.8324 11.9875 13.1699 12.8813C13.2387 13.0563 13.3199 13.4 13.3512 13.6375C13.4137 14.175 13.5699 14.375 13.9137 14.375C14.2574 14.375 14.3887 14.1938 14.4637 13.6063C14.6262 12.3438 15.5137 11.4313 16.7387 11.2438C17.3012 11.1625 17.4824 11.075 17.5887 10.8563C17.6637 10.7063 17.6574 10.65 17.5574 10.45C17.4387 10.2063 17.4637 10.2125 16.6324 10.0688C16.0762 9.96875 15.5387 9.68125 15.1699 9.28125C14.7637 8.83125 14.5512 8.375 14.4637 7.7375C14.4074 7.35 14.3574 7.1875 14.2512 7.08125C14.0637 6.89375 13.7824 6.89375 13.5699 7.08125ZM14.0512 9.6125C14.1574 9.79375 14.7887 10.4063 15.0262 10.5625C15.1637 10.6563 15.1637 10.6563 14.8199 10.9188C14.6324 11.0688 14.3449 11.3563 14.1887 11.5563L13.9012 11.9313L13.6387 11.575C13.4887 11.3813 13.2137 11.0938 13.0137 10.9438L12.6512 10.6625L12.8324 10.5375C13.1449 10.3063 13.5199 9.94375 13.6949 9.6875C13.7887 9.55 13.8887 9.4375 13.9074 9.4375C13.9324 9.4375 13.9949 9.5125 14.0512 9.6125Z" fill="#805840"/>
<path d="M6.06982 0.718652C5.91982 0.862402 5.91357 0.906152 5.91357 1.5874C5.91357 2.2499 5.92607 2.31865 6.06357 2.4749C6.26982 2.71865 6.61982 2.71865 6.83232 2.4749C6.98232 2.2999 6.98232 2.2624 6.96357 1.5499C6.94482 0.849902 6.93232 0.793652 6.79482 0.681152C6.58857 0.512402 6.25732 0.524902 6.06982 0.718652Z" fill="#805840"/>
<path d="M3.94407 2.84375C3.71282 3.06875 3.73157 3.38125 3.98157 3.5875C4.15657 3.7375 4.21282 3.75 4.80657 3.75C5.19407 3.75 5.50657 3.71875 5.60032 3.66875C5.93782 3.5 5.99407 3.08125 5.72532 2.8125C5.61282 2.7 5.51282 2.6875 4.85032 2.6875C4.13157 2.6875 4.08782 2.69375 3.94407 2.84375Z" fill="#805840"/>
<path d="M7.13175 2.84375C6.93175 3.0375 6.93175 3.3125 7.1255 3.54375C7.2755 3.71875 7.28175 3.71875 8.038 3.71875C8.79425 3.71875 8.8005 3.71875 8.9505 3.54375C9.14425 3.3125 9.14425 3.0375 8.94425 2.84375C8.8005 2.69375 8.75675 2.6875 8.038 2.6875C7.31925 2.6875 7.2755 2.69375 7.13175 2.84375Z" fill="#805840"/>
<path d="M6.06982 3.90625C5.91982 4.05 5.91357 4.09375 5.91357 4.78125C5.91357 5.5 5.91357 5.5125 6.09482 5.69375C6.20732 5.8 6.34482 5.875 6.44482 5.875C6.54482 5.875 6.68232 5.8 6.79482 5.69375C6.96982 5.5125 6.97607 5.49375 6.97607 4.84375C6.97607 4.15625 6.90107 3.86875 6.69482 3.7875C6.47607 3.70625 6.21982 3.75 6.06982 3.90625Z" fill="#805840"/>
<path d="M26.8823 14.0312C26.7698 14.1375 26.7261 14.25 26.7261 14.4125C26.7261 14.6062 26.7823 14.7 27.1823 15.1062C27.6448 15.5937 27.9448 15.7812 28.1448 15.7062C28.3823 15.625 28.5386 15.4187 28.5386 15.1875C28.5386 14.9812 28.4823 14.9062 27.9823 14.4187C27.3573 13.8062 27.1698 13.7375 26.8823 14.0312Z" fill="#805840"/>
<path d="M29.6823 14.3874C29.0636 14.9999 28.9761 15.2249 29.2448 15.5312C29.3636 15.6687 29.4511 15.7124 29.6323 15.7124C29.8386 15.7124 29.9136 15.6562 30.4198 15.1437C31.0511 14.5062 31.1011 14.3624 30.7948 14.0562C30.4761 13.7374 30.2948 13.7937 29.6823 14.3874Z" fill="#805840"/>
<path d="M27.8198 16.3376C27.7198 16.3813 27.4261 16.6313 27.1823 16.8938C26.7698 17.3188 26.7261 17.3876 26.7261 17.6126C26.7261 17.8126 26.7636 17.8938 26.8886 17.9938C27.2073 18.2438 27.3761 18.1813 27.9823 17.5813C28.4823 17.0938 28.5386 17.0188 28.5386 16.8126C28.5386 16.4251 28.1698 16.1813 27.8198 16.3376Z" fill="#805840"/>
<path d="M29.3699 16.3688C29.1324 16.5188 29.0574 16.7938 29.1824 17.0438C29.2324 17.1376 29.4886 17.4251 29.7449 17.6688C30.2949 18.2001 30.4824 18.2501 30.7949 17.9438C31.1011 17.6376 31.0511 17.4938 30.4324 16.8688C30.1261 16.5626 29.8136 16.3001 29.7261 16.2813C29.6261 16.2626 29.4949 16.2938 29.3699 16.3688Z" fill="#805840"/>
</g>
<defs>
<clipPath id="clip0_800_785">
<rect width="32" height="32" fill="white" transform="translate(0.0385742)"/>
</clipPath>
</defs>
</svg>
