<svg width="33" height="32" viewBox="0 0 33 32" fill="none" xmlns="http://www.w3.org/2000/svg">
<g clip-path="url(#clip0_800_797)">
<path d="M8.10146 1.6873C7.30771 1.80605 6.55146 2.2248 5.96396 2.86855C4.71396 4.21855 4.72646 6.36855 5.98271 7.7123L6.35146 8.10605L6.10146 8.21855C5.80771 8.3498 5.42021 8.7498 5.21396 9.1373C5.09521 9.3623 5.07021 9.4998 5.07021 9.9998C5.07021 10.6561 5.17646 10.9686 5.53271 11.3623L5.72021 11.5686L5.45146 11.9311C5.11396 12.3936 5.01396 12.7436 5.05146 13.3311C5.09521 14.0311 5.44521 14.5873 6.04521 14.9311L6.35146 15.0998L6.08896 15.3498C5.24521 16.1561 4.85771 17.4873 5.10771 18.6998C5.20771 19.1811 5.55771 19.8748 5.88271 20.2373C6.03896 20.4061 6.16396 20.5686 6.16396 20.5873C6.16396 20.6061 4.97021 20.6248 3.50771 20.6248C0.651463 20.6248 0.676463 20.6248 0.370213 20.9498C0.0889634 21.2498 0.0389634 21.4936 0.0389634 22.5311C0.0389634 23.6311 0.0827134 23.7998 0.432713 24.1061C0.676463 24.3186 1.00146 24.4373 1.33896 24.4373H1.53896V25.4623V26.4811L1.18896 26.5248C0.632713 26.5873 0.326463 26.8061 0.132713 27.2623C-0.0172866 27.6248 0.00146342 29.3123 0.157713 29.6561C0.295213 29.9686 0.588963 30.2248 0.901463 30.3123C1.22646 30.3998 30.8515 30.3998 31.1765 30.3123C31.489 30.2248 31.7827 29.9686 31.9202 29.6561C32.0765 29.3123 32.0952 27.6248 31.9452 27.2623C31.7515 26.8061 31.4452 26.5873 30.889 26.5248L30.539 26.4811V25.4623V24.4373H30.7452C31.289 24.4373 31.8515 24.0686 31.9765 23.6373C32.0077 23.5061 32.039 22.9873 32.039 22.4811C32.039 21.4998 31.9827 21.2436 31.7077 20.9498C31.4077 20.6248 31.389 20.6248 29.0015 20.6248C26.5015 20.6248 26.739 20.6811 26.939 20.1561C27.064 19.8311 27.064 19.1498 26.9452 18.8061C26.889 18.6623 26.739 18.3936 26.6077 18.2186L26.3702 17.9061L26.6077 17.5936C26.9515 17.1498 27.0577 16.7811 27.0265 16.1936C26.9827 15.4686 26.5577 14.7936 25.9765 14.5311L25.7265 14.4186L26.0952 14.0248C27.3577 12.6748 27.3577 10.5123 26.1015 9.1623L25.739 8.7748L26.014 8.63105C26.614 8.30605 26.9827 7.71855 27.0265 6.99355C27.0577 6.40605 26.9515 6.0373 26.6015 5.58105L26.3577 5.2498L26.5202 5.08105C26.6077 4.98105 26.764 4.73105 26.8702 4.5123C27.039 4.1498 27.0515 4.0748 27.0265 3.60605C26.9827 2.78105 26.5765 2.1748 25.8327 1.8373L25.4452 1.65605H19.189C13.1202 1.65605 12.9202 1.6623 12.7952 1.7748C12.639 1.9123 12.6202 2.23105 12.7515 2.4123C12.839 2.53105 12.9952 2.53105 19.0827 2.5623C24.8702 2.59355 25.3327 2.5998 25.5202 2.6998C26.3265 3.14355 26.2827 4.31855 25.4452 4.69355C25.2077 4.80605 24.8265 4.8123 17.3952 4.8123H9.59521L9.44521 4.96855C9.35771 5.0498 9.28896 5.19355 9.28896 5.28105C9.28896 5.36855 9.35771 5.5123 9.44521 5.59355L9.59521 5.7498H17.4077C22.7765 5.7498 25.2765 5.76855 25.3952 5.81855C25.6077 5.8998 25.8952 6.1623 26.014 6.3873C26.2265 6.7998 26.0515 7.4748 25.6515 7.7623L25.4452 7.90605H16.6952H7.94521L7.52021 7.70605C6.96396 7.44355 6.47021 6.9498 6.20771 6.39355C6.02021 5.99355 6.00771 5.9248 6.00771 5.28105C6.00771 4.6373 6.02021 4.56855 6.20146 4.18105C6.53271 3.48105 7.02646 3.03105 7.75771 2.7498C8.10771 2.6123 8.23896 2.5998 9.78896 2.5748C11.6452 2.5498 11.664 2.54355 11.664 2.1248C11.664 1.96855 11.6202 1.85605 11.5327 1.7748C11.414 1.66855 11.2827 1.65605 9.92021 1.64355C9.10771 1.64355 8.28896 1.6623 8.10146 1.6873ZM23.7515 8.9373C24.6702 9.0498 25.4702 9.6373 25.8702 10.4873C26.0577 10.8811 26.0702 10.9498 26.0702 11.5936C26.0702 12.2373 26.0577 12.3061 25.8702 12.7061C25.6077 13.2623 25.114 13.7561 24.5577 14.0186L24.1327 14.2186L15.4577 14.2373C5.80146 14.2561 6.52646 14.2873 6.18271 13.8311C6.01396 13.6061 5.92646 13.1436 6.00146 12.8498C6.05771 12.6248 6.40771 12.2498 6.64521 12.1498C6.81396 12.0748 8.23896 12.0623 14.664 12.0623H22.4827L22.6327 11.9061C22.8327 11.7123 22.8327 11.4748 22.6327 11.2811L22.4827 11.1248H14.714C9.82646 11.1248 6.86396 11.0998 6.73271 11.0623C6.29521 10.9373 5.97646 10.4998 5.97646 10.0311C5.97646 9.4873 6.33896 9.03105 6.83896 8.93105C7.17646 8.86855 23.2452 8.86855 23.7515 8.9373ZM25.5202 15.3498C25.8327 15.4998 26.0515 15.8248 26.089 16.1873C26.1265 16.5936 26.0765 16.7686 25.839 17.0373C25.4702 17.4561 25.739 17.4373 20.2015 17.4373C17.439 17.4373 15.1265 17.4561 15.0702 17.4748C14.789 17.5873 14.7702 18.1686 15.039 18.3123C15.114 18.3498 17.0265 18.3748 20.1952 18.3748C25.7452 18.3748 25.4702 18.3561 25.839 18.7748C26.0765 19.0436 26.1265 19.2186 26.089 19.6248C26.0515 19.9936 25.8327 20.3061 25.4952 20.4748C25.264 20.5873 24.9577 20.5936 17.1015 20.6123C11.8577 20.6248 8.75771 20.6061 8.41396 20.5623C7.39521 20.4436 6.63271 19.9061 6.20146 18.9998C6.02021 18.6248 6.00771 18.5436 6.00771 17.9061C6.00771 17.2623 6.02021 17.1936 6.20771 16.7998C6.53896 16.0936 7.07021 15.6186 7.82021 15.3623C8.10771 15.2623 8.73896 15.2561 16.714 15.2498C24.5452 15.2498 25.3202 15.2561 25.5202 15.3498ZM31.089 22.4686C31.1015 23.2373 31.089 23.3498 30.9952 23.4186C30.8577 23.5248 1.28896 23.5373 1.09521 23.4373C0.988963 23.3748 0.976463 23.2936 0.976463 22.5061C0.976463 22.0311 0.995213 21.6248 1.02021 21.6061C1.03896 21.5811 7.81396 21.5686 16.064 21.5748L31.0702 21.5936L31.089 22.4686ZM4.78896 25.4686V26.4998H3.66396H2.53896V25.4686V24.4373H3.66396H4.78896V25.4686ZM9.85146 25.4686V26.4998H7.78896H5.72646V25.4686V24.4373H7.78896H9.85146V25.4686ZM13.039 25.4686V26.4998H11.914H10.789V25.4686V24.4373H11.914H13.039V25.4686ZM18.1015 25.4686V26.4998H16.039H13.9765V25.4686V24.4373H16.039H18.1015V25.4686ZM21.289 25.4686V26.4998H20.164H19.039V25.4686V24.4373H20.164H21.289V25.4686ZM26.3515 25.4686V26.4998H24.289H22.2265V25.4686V24.4373H24.289H26.3515V25.4686ZM29.539 25.4686V26.4998H28.414H27.289V25.4686V24.4373H28.414H29.539V25.4686ZM30.9827 27.4998C31.089 27.5623 31.1015 27.6436 31.1015 28.4373C31.1015 29.2311 31.089 29.3123 30.9827 29.3748C30.814 29.4623 1.26396 29.4623 1.09521 29.3748C0.988963 29.3123 0.976463 29.2311 0.976463 28.4373C0.976463 27.6748 0.988963 27.5623 1.08896 27.5061C1.23896 27.4123 30.814 27.4123 30.9827 27.4998Z" fill="#805840"/>
<path d="M9.44482 17.5937C9.35732 17.675 9.28857 17.8187 9.28857 17.9062C9.28857 17.9937 9.35732 18.1375 9.44482 18.2187L9.59482 18.375H11.5886H13.5823L13.7136 18.2312C13.8948 18.0375 13.8948 17.75 13.7073 17.575C13.5636 17.4375 13.5261 17.4375 11.5761 17.4375H9.59482L9.44482 17.5937Z" fill="#805840"/>
</g>
<defs>
<clipPath id="clip0_800_797">
<rect width="32" height="32" fill="white" transform="translate(0.0385742)"/>
</clipPath>
</defs>
</svg>
