<svg width="33" height="32" viewBox="0 0 33 32" fill="none" xmlns="http://www.w3.org/2000/svg">
<g clip-path="url(#clip0_800_749)">
<path d="M10.4886 0.600003C10.0698 0.712503 10.2511 0.581253 5.00732 4.45L0.569824 7.725L0.551074 9.1125L0.538574 10.5H1.03857H1.53857V15.375V20.2563L1.35107 20.625C1.08232 21.1563 0.888574 21.6938 0.726074 22.375C0.538574 23.1438 0.513574 24.7563 0.682324 25.4875C1.03857 27.025 1.68857 28.225 2.75107 29.2875C3.83857 30.375 5.16357 31.0813 6.69482 31.3813C7.33857 31.5125 8.87607 31.4938 9.53857 31.35C11.0073 31.0375 12.2573 30.35 13.3261 29.2875C14.4198 28.1938 15.1261 26.8625 15.4198 25.3438C15.5136 24.8563 15.5323 23.4938 15.4573 22.8875L15.4073 22.5H16.0386H16.6698L16.6198 22.8875C16.5448 23.4938 16.5636 24.8563 16.6573 25.3438C17.1136 27.675 18.6011 29.65 20.7136 30.7125C21.2448 30.9813 22.0636 31.2563 22.6948 31.3813C23.3386 31.5125 24.8761 31.4938 25.5386 31.35C27.8011 30.8625 29.7136 29.3875 30.7511 27.325C31.2761 26.275 31.5073 25.2688 31.5073 24C31.5073 23.0188 31.4323 22.525 31.1573 21.675C30.7886 20.5375 30.1886 19.5688 29.2948 18.6875C28.2323 17.6313 27.0573 16.9938 25.5261 16.6438C24.9573 16.5125 23.2511 16.4938 22.6948 16.6188C22.0448 16.7563 21.4636 16.9438 20.9948 17.1563L20.5386 17.3688V16V14.6313L20.9948 14.8438C21.9698 15.2938 22.8073 15.4625 24.0386 15.4625C25.0886 15.4688 25.6886 15.375 26.5073 15.0813C28.3386 14.4188 29.8761 13.0625 30.7511 11.325C31.2761 10.275 31.5073 9.26875 31.5073 8C31.5073 7.01875 31.4323 6.525 31.1573 5.675C30.7886 4.5375 30.1886 3.56875 29.2948 2.6875C28.2073 1.60625 26.9136 0.918753 25.3823 0.618753C24.8136 0.506253 23.2636 0.506253 22.6948 0.618753C20.4261 1.06875 18.6698 2.3625 17.3823 4.53125C17.3261 4.625 16.9948 4.4 14.9136 2.8625C11.9073 0.643753 11.9948 0.706253 11.5636 0.593753C11.1261 0.481253 10.9198 0.481253 10.4886 0.600003ZM24.9511 1.56875C25.9073 1.7 27.0198 2.14375 27.8198 2.71875C28.2448 3.01875 29.1011 3.8875 29.3886 4.3125C30.5198 5.95625 30.8386 8.18125 30.2073 10.0313C29.8761 11.0063 29.4323 11.725 28.6948 12.4875C26.6886 14.5813 23.6886 15.0875 21.0698 13.7688C20.4198 13.4375 19.9261 13.0625 19.3448 12.4563C18.7886 11.875 18.5698 11.5688 18.2386 10.9C17.3073 9.05 17.3073 6.95 18.2386 5.09375C18.5886 4.39375 18.9386 3.925 19.5448 3.34375C20.1573 2.75625 20.4573 2.5375 21.1386 2.2C22.3261 1.6 23.6386 1.3875 24.9511 1.56875ZM10.5386 4.59375V7.5H6.55732C4.36982 7.5 2.60107 7.475 2.63857 7.45C2.66982 7.41875 3.40107 6.88125 4.25732 6.25C5.11982 5.61875 5.90732 5.0375 6.01357 4.95625L6.20732 4.8125L6.44482 5.36875L6.67607 5.93125L7.00107 6C8.74482 6.35625 9.41982 6.475 9.44482 6.44375C9.49482 6.35625 9.61982 5.5625 9.58857 5.525C9.56982 5.50625 9.06357 5.39375 8.46982 5.275C7.87607 5.15625 7.38232 5.05 7.38232 5.04375C7.23232 4.75625 7.04482 4.21875 7.08232 4.18125C7.20107 4.0625 10.4511 1.6875 10.4948 1.6875C10.5198 1.6875 10.5386 2.99375 10.5386 4.59375ZM12.6823 2.4625C13.2636 2.8875 13.7511 3.25625 13.7698 3.275C13.7886 3.29375 13.5198 3.65 13.1698 4.0625L12.5386 4.825V5.6625V6.5H13.0386H13.5386V6.15625V5.8125L14.1636 6.125C14.5073 6.29375 14.7948 6.4375 14.8073 6.4375C14.8448 6.4375 15.2511 5.5625 15.2198 5.5375C15.2073 5.525 14.9011 5.36875 14.5386 5.1875C14.1761 5.00625 13.8698 4.85 13.8636 4.84375C13.8511 4.83125 14.0136 4.6125 14.2323 4.35625L14.6198 3.8875L15.3136 4.4C15.6948 4.68125 16.2136 5.0625 16.4636 5.24375C16.7073 5.425 16.9136 5.6 16.9136 5.63125C16.9136 5.6625 16.8573 5.8875 16.7886 6.1375C16.7198 6.3875 16.6448 6.7875 16.6198 7.03125L16.5698 7.46875L14.0573 7.4875L11.5386 7.5V4.59375C11.5386 2.99375 11.5573 1.6875 11.5886 1.6875C11.6136 1.6875 12.1073 2.0375 12.6823 2.4625ZM10.5386 9V9.5H6.03857H1.53857V9V8.5H6.03857H10.5386V9ZM16.5636 8.575C16.5823 8.61875 16.6073 8.84375 16.6261 9.075L16.6698 9.5H14.1011H11.5386V9V8.5H14.0386C15.9886 8.5 16.5448 8.51875 16.5636 8.575ZM10.5386 13.7188C10.5386 15.4875 10.5261 16.9375 10.5198 16.9375C10.5073 16.9375 10.3323 16.8813 10.1323 16.8125C9.93232 16.7438 9.71982 16.6875 9.65107 16.6875C9.54482 16.6875 9.53857 16.575 9.53857 14.0938V11.5H6.53857H3.53857V14.7563V18.0063L3.33857 18.175C3.22607 18.2688 3.00107 18.4688 2.83857 18.6188L2.53857 18.8938V14.6938V10.5H6.53857H10.5386V13.7188ZM17.1948 11.025C17.3136 11.3 17.5511 11.7438 17.7198 12.0125L18.0323 12.5H15.2886H12.5386V15V17.5H15.5386H18.5386V15.3063V13.1063L18.8386 13.3813C19.0011 13.5313 19.2261 13.7313 19.3386 13.825L19.5386 13.9938V16.0125V18.0313L19.2823 18.2188C18.4573 18.825 17.4011 20.3063 17.0198 21.3875C16.9823 21.4875 16.8761 21.5 16.0386 21.5C15.2011 21.5 15.0948 21.4875 15.0573 21.3875C14.5823 20.0375 13.3886 18.55 12.1136 17.7188L11.5386 17.3438V13.925V10.5L14.2573 10.5125L16.9823 10.5313L17.1948 11.025ZM8.53857 14.4875V16.4813L7.77607 16.5188C6.66982 16.5688 5.63857 16.8188 4.84482 17.2188L4.53857 17.375V14.9375V12.5H6.53857H8.53857V14.4875ZM17.5386 15V16.5H15.5386H13.5386V15V13.5H15.5386H17.5386V15ZM8.95107 17.5688C9.85107 17.6938 10.9761 18.1313 11.7198 18.6438C12.1261 18.925 12.9386 19.7125 13.2698 20.15C13.8386 20.9125 14.2823 21.9813 14.4448 22.9688C14.7886 25.0813 14.0948 27.1438 12.5261 28.6625C11.7823 29.3813 11.0448 29.8313 10.0698 30.1688C8.14482 30.825 5.81982 30.45 4.18857 29.2313C3.75107 28.9 2.96357 28.0875 2.68232 27.6813C1.57607 26.075 1.25107 23.9438 1.83232 22.0938C2.16982 21.0125 2.70732 20.15 3.54482 19.3375C4.15107 18.7563 4.44482 18.5438 5.13857 18.2C6.32607 17.6 7.63857 17.3875 8.95107 17.5688ZM24.9511 17.5688C25.8511 17.6938 26.9761 18.1313 27.7198 18.6438C28.1261 18.925 28.9386 19.7125 29.2698 20.15C29.8386 20.9125 30.2823 21.9813 30.4448 22.9688C30.7886 25.0813 30.0948 27.1438 28.5261 28.6625C27.7823 29.3813 27.0448 29.8313 26.0698 30.1688C24.1448 30.825 21.8198 30.45 20.1886 29.2313C19.7511 28.9 18.9636 28.0875 18.6823 27.6813C17.5761 26.075 17.2511 23.9438 17.8323 22.0938C18.1698 21.0125 18.7073 20.15 19.5448 19.3375C20.1511 18.7563 20.4448 18.5438 21.1386 18.2C22.3261 17.6 23.6386 17.3875 24.9511 17.5688Z" fill="#805840"/>
<path d="M21.3198 4L20.8198 4.5L21.4323 5.1125L22.0386 5.71875L21.9386 5.90625C21.8011 6.175 21.6573 6.31875 21.4448 6.4125C21.2573 6.49375 21.2573 6.4875 20.6511 5.8875L20.0386 5.28125L19.5386 5.78125C19.0573 6.25625 19.0386 6.2875 19.0386 6.5625C19.0386 7.275 19.4136 8.1125 19.9698 8.64375C20.6323 9.275 21.3823 9.54375 22.3198 9.475L22.8761 9.4375L24.3511 10.8937C25.9011 12.4312 25.9948 12.5 26.5511 12.5C27.3261 12.5 28.0386 11.7812 28.0386 11C28.0386 10.4562 27.9636 10.3562 26.4323 8.8125L24.9761 7.3375L25.0136 6.78125C25.0823 5.84375 24.8136 5.09375 24.1823 4.43125C23.6511 3.875 22.8136 3.5 22.1011 3.5C21.8261 3.5 21.7948 3.51875 21.3198 4ZM22.9136 4.7125C23.7948 5.11875 24.2261 6.15625 23.9198 7.125L23.7948 7.53125L25.4136 9.15625C26.8698 10.6187 27.0386 10.8062 27.0386 10.9875C27.0386 11.2625 26.8011 11.5 26.5261 11.5C26.3448 11.5 26.1573 11.3312 24.6948 9.875L23.0698 8.25625L22.6636 8.38125C21.5261 8.74375 20.3511 8.0875 20.0948 6.94375C20.0448 6.73125 20.0511 6.73125 20.4448 7.125L20.8448 7.51875L21.2261 7.48125C21.6761 7.43125 22.2698 7.14375 22.5136 6.85625C22.7761 6.54375 22.9761 6.08125 23.0198 5.68125L23.0573 5.30625L22.6573 4.9C22.2886 4.525 22.2698 4.49375 22.4448 4.5375C22.5511 4.5625 22.7573 4.6375 22.9136 4.7125Z" fill="#805840"/>
<path d="M6.55107 19.5813C6.28232 19.6625 5.82607 20.0688 5.72607 20.3125L5.65107 20.5H4.59482H3.53857L3.55107 21.95L3.56982 23.4L5.55732 23.8938L7.53857 24.3875V25V25.6125L7.35107 25.6875C7.08857 25.7938 6.70107 26.25 6.61357 26.55C6.51357 26.8688 6.51982 28.1313 6.61357 28.4625C6.77607 29 7.46357 29.5 8.03857 29.5C8.61357 29.5 9.30107 29 9.46357 28.4625C9.55732 28.1313 9.56357 26.8688 9.46357 26.55C9.37607 26.25 8.98857 25.7938 8.73232 25.6875L8.53857 25.6125L8.52607 24.6063L8.50732 23.6L6.52607 23.1063L4.53857 22.6125V22.0563V21.5H5.09482H5.65107L5.72607 21.6875C5.83232 21.95 6.28857 22.3375 6.58857 22.425C6.93857 22.5313 11.1448 22.5313 11.5011 22.425C11.8448 22.325 12.3636 21.8063 12.4636 21.4625C12.6261 20.9063 12.5198 20.4438 12.1198 20C11.6761 19.5063 11.6261 19.5 9.01357 19.5063C7.62607 19.5125 6.67607 19.5375 6.55107 19.5813ZM11.3823 20.6563C11.4823 20.75 11.5386 20.8813 11.5386 21C11.5386 21.1188 11.4823 21.25 11.3823 21.3438L11.2323 21.5H9.03857H6.84482L6.69482 21.3438C6.59482 21.25 6.53857 21.1188 6.53857 21C6.53857 20.8813 6.59482 20.75 6.69482 20.6563L6.84482 20.5H9.03857H11.2323L11.3823 20.6563ZM8.38232 26.6563C8.53232 26.8 8.53857 26.85 8.53857 27.5C8.53857 28.15 8.53232 28.2 8.38232 28.3438C8.18232 28.55 7.89482 28.55 7.69482 28.3438C7.54482 28.2 7.53857 28.15 7.53857 27.5C7.53857 26.85 7.54482 26.8 7.69482 26.6563C7.78857 26.5563 7.91982 26.5 8.03857 26.5C8.15732 26.5 8.28857 26.5563 8.38232 26.6563Z" fill="#805840"/>
<path d="M26.1639 20.0689C24.8639 20.2002 23.3639 20.6064 21.8889 21.2189L21.6451 21.3252L22.7326 22.4127L23.8201 23.5002L23.2514 24.0627L22.6889 24.6314L22.3826 24.5627C22.0326 24.4814 21.6701 24.5252 21.3514 24.6877C21.2326 24.7502 20.8076 25.1314 20.4139 25.5439C19.8639 26.1002 19.6701 26.3439 19.6139 26.5377C19.4451 27.1252 19.5639 27.5939 20.0076 28.0314C20.4639 28.4877 20.9514 28.6064 21.5514 28.4002C21.9514 28.2689 23.3514 26.8439 23.4639 26.4627C23.5576 26.1377 23.5576 25.8252 23.4701 25.5627C23.3951 25.3627 23.4014 25.3564 23.9701 24.7939L24.5389 24.2189L25.6264 25.3064L26.7139 26.3939L26.8201 26.1502C27.6326 24.2064 28.0389 22.3377 28.0389 20.5502V20.0002L27.3701 20.0064C26.9951 20.0127 26.4576 20.0377 26.1639 20.0689ZM27.0076 21.4189C26.9389 22.1439 26.7889 23.0002 26.6326 23.6314C26.3514 24.7439 26.5576 24.8002 24.9139 23.1564C24.1264 22.3689 23.5014 21.7002 23.5264 21.6814C23.7139 21.4939 25.8451 21.0689 26.8701 21.0127L27.0514 21.0002L27.0076 21.4189ZM22.3826 25.6564C22.4826 25.7564 22.5389 25.8752 22.5389 26.0127C22.5389 26.1814 22.4451 26.3064 21.8951 26.8564C21.3451 27.4064 21.2201 27.5002 21.0514 27.5002C20.7764 27.5002 20.5389 27.2627 20.5389 26.9877C20.5389 26.8189 20.6326 26.6939 21.1826 26.1439C21.7326 25.5939 21.8576 25.5002 22.0264 25.5002C22.1639 25.5002 22.2826 25.5564 22.3826 25.6564Z" fill="#805840"/>
</g>
<defs>
<clipPath id="clip0_800_749">
<rect width="32" height="32" fill="white" transform="translate(0.0385742)"/>
</clipPath>
</defs>
</svg>
