<svg width="42" height="24" viewBox="0 0 42 24" fill="none" xmlns="http://www.w3.org/2000/svg">
<path d="M5.20828 0.031148C3.90849 0.246997 2.96532 1.56086 3.19056 2.85127C3.42048 4.19798 4.7015 5.113 6.03414 4.88307C7.98617 4.54522 8.74633 2.12864 7.34331 0.72562C6.78492 0.167227 5.97314 -0.0955462 5.20828 0.031148ZM6.34853 0.880469C7.33862 1.34032 7.66709 2.55096 7.05708 3.45659C6.86 3.74282 6.66761 3.89767 6.29691 4.07129C6.07168 4.17921 5.96375 4.19798 5.60713 4.19798C5.22236 4.19798 5.15197 4.1839 4.87043 4.04313C4.23226 3.72874 3.88034 3.16566 3.88034 2.4618C3.88034 1.98787 4.00703 1.64063 4.30265 1.31217C4.84227 0.711543 5.63059 0.542618 6.34853 0.880469Z" fill="black"/>
<path d="M2.75405 5.68095C2.26604 5.79826 1.78742 6.2018 1.56218 6.68512L1.4308 6.96666L1.41672 10.2185C1.40734 12.5177 1.42141 13.5266 1.45895 13.6674C1.52934 13.9302 1.89065 14.2868 2.1675 14.3619C2.28012 14.39 2.46781 14.4041 2.59451 14.39L2.81505 14.3619V17.8952C2.81505 21.9072 2.79628 21.7101 3.19044 22.1043C3.80045 22.7143 4.82339 22.5219 5.17532 21.7242C5.25509 21.5459 5.27386 21.3817 5.29263 20.6543L5.31609 19.8003H5.63048H5.94487L5.96833 20.6543C5.9871 21.3817 6.00587 21.5459 6.08564 21.7242C6.43757 22.5219 7.4605 22.7143 8.07051 22.1043C8.38021 21.7899 8.4459 21.5693 8.4459 20.7998C8.4459 20.4573 8.4506 20.1757 8.45998 20.1757C8.46937 20.1757 8.62421 20.2273 8.80252 20.2883C9.73162 20.6027 10.3698 21.1236 10.3698 21.56C10.3698 22.2591 8.95737 22.9771 7.08511 23.2351C6.50795 23.3102 4.753 23.3102 4.17584 23.2351C2.58982 23.0193 1.29003 22.4562 0.985021 21.8603C0.933405 21.7617 0.891174 21.621 0.891174 21.5459C0.891174 21.2503 1.29472 20.8186 1.81557 20.5558C2.12058 20.4009 2.19096 20.1992 2.01265 19.9692C1.8625 19.7816 1.67949 19.805 1.23372 20.0819C-0.112995 20.9124 -0.155227 22.1137 1.13518 22.9724C1.77334 23.3994 2.81036 23.7419 3.96937 23.9155C4.73423 24.0282 6.50795 24.0282 7.27281 23.9155C9.88646 23.5308 11.3739 22.4468 11.0079 21.1986C10.8202 20.5417 10.0225 19.9317 8.86822 19.561L8.46937 19.4343L8.45529 16.8957L8.4459 14.3572L8.65706 14.39C9.14038 14.4557 9.67061 14.1132 9.79731 13.6533C9.84423 13.4938 9.85362 12.6773 9.84423 10.2044L9.83016 6.96666L9.68469 6.66166C9.497 6.27219 9.20607 5.98126 8.82129 5.79826L8.51629 5.65279L5.72432 5.64341C4.18992 5.63872 2.85259 5.65749 2.75405 5.68095ZM8.63829 6.49742C8.75091 6.57719 8.90576 6.73204 8.98553 6.84466L9.1263 7.04643L9.14038 10.256L9.15445 13.4656L9.03714 13.5829C8.88699 13.7331 8.70868 13.7331 8.56321 13.5829L8.4459 13.4703V10.3686V7.26697L8.32859 7.15436C8.26759 7.08866 8.15967 7.03705 8.09398 7.03705C8.02828 7.03705 7.92036 7.08866 7.85936 7.15436L7.74205 7.26697V14.3196C7.74205 21.1376 7.73735 21.377 7.65289 21.5177C7.47458 21.8134 7.05227 21.8462 6.83173 21.5787L6.70972 21.4333V17.4401C6.70972 15.0188 6.69095 13.3811 6.6628 13.2826C6.58772 13.0151 6.53611 13.0011 5.63048 13.0011C4.72485 13.0011 4.67323 13.0151 4.59815 13.2826C4.57 13.3811 4.55123 15.0188 4.55123 17.4401V21.4333L4.42923 21.5787C4.20869 21.8462 3.78637 21.8134 3.60806 21.5177C3.5236 21.377 3.51891 21.1376 3.51891 14.3196V7.26697L3.4016 7.15436C3.3406 7.08866 3.23267 7.03705 3.16698 7.03705C3.10128 7.03705 2.99336 7.08866 2.93236 7.15436L2.81505 7.26697V10.3686V13.4703L2.69774 13.5829C2.55228 13.7331 2.37397 13.7331 2.2285 13.5829L2.11119 13.4703V10.3593C2.11119 8.27114 2.12996 7.1872 2.16281 7.0652C2.2285 6.83058 2.55228 6.48804 2.79159 6.40358C2.94644 6.34727 3.43914 6.33788 5.71025 6.34727L8.43652 6.35665L8.63829 6.49742ZM5.95894 16.3983V19.0965H5.63048H5.30201V16.3983V13.7002H5.63048H5.95894V16.3983Z" fill="black"/>
<path d="M26.291 16L28.355 13.024L26.291 10.048H27.383L29.051 12.508L30.731 10.048H31.811L29.747 13.024L31.811 16H30.731L29.051 13.54L27.383 16H26.291ZM36.9116 16.144C36.3036 16.144 35.7916 16.032 35.3756 15.808C34.9596 15.576 34.6236 15.268 34.3676 14.884C34.1196 14.5 33.9356 14.072 33.8156 13.6C33.7036 13.12 33.6476 12.632 33.6476 12.136C33.6476 11.208 33.7756 10.396 34.0316 9.7C34.2876 8.996 34.6556 8.448 35.1356 8.056C35.6236 7.656 36.2116 7.456 36.8996 7.456C37.4276 7.456 37.8796 7.56 38.2556 7.768C38.6316 7.976 38.9276 8.256 39.1436 8.608C39.3676 8.952 39.5076 9.336 39.5636 9.76H38.6276C38.5396 9.304 38.3436 8.952 38.0396 8.704C37.7356 8.456 37.3516 8.332 36.8876 8.332C36.2556 8.332 35.7236 8.632 35.2916 9.232C34.8676 9.824 34.6396 10.752 34.6076 12.016C34.7996 11.64 35.1036 11.316 35.5196 11.044C35.9436 10.764 36.4516 10.624 37.0436 10.624C37.5236 10.624 37.9716 10.736 38.3876 10.96C38.8116 11.184 39.1556 11.5 39.4196 11.908C39.6836 12.308 39.8156 12.78 39.8156 13.324C39.8156 13.796 39.6996 14.248 39.4676 14.68C39.2356 15.112 38.8996 15.464 38.4596 15.736C38.0276 16.008 37.5116 16.144 36.9116 16.144ZM36.8396 15.256C37.2156 15.256 37.5516 15.176 37.8476 15.016C38.1436 14.856 38.3756 14.636 38.5436 14.356C38.7116 14.068 38.7956 13.74 38.7956 13.372C38.7956 12.804 38.6076 12.352 38.2316 12.016C37.8636 11.672 37.3996 11.5 36.8396 11.5C36.4636 11.5 36.1276 11.588 35.8316 11.764C35.5356 11.932 35.2996 12.16 35.1236 12.448C34.9556 12.736 34.8716 13.048 34.8716 13.384C34.8716 13.744 34.9556 14.068 35.1236 14.356C35.2996 14.636 35.5356 14.856 35.8316 15.016C36.1276 15.176 36.4636 15.256 36.8396 15.256Z" fill="black"/>
</svg>
