<svg width="66" height="24" viewBox="0 0 66 24" fill="none" xmlns="http://www.w3.org/2000/svg">
<path d="M18.8705 0.0876045C18.7377 0.151342 18.6262 0.294751 18.4456 0.624061C18.2066 1.0596 18.1906 1.07553 17.7763 1.30393C17.2558 1.58543 17.1655 1.68635 17.1655 1.98379C17.1655 2.28654 17.293 2.43527 17.7923 2.70084C18.1906 2.9133 18.2119 2.93454 18.4297 3.33821C18.7005 3.83218 18.8546 3.97559 19.1361 3.97559C19.407 3.97559 19.5875 3.81093 19.8425 3.32759C20.0443 2.95048 20.0762 2.91861 20.4427 2.72208C20.9526 2.4512 21.1066 2.29186 21.1172 2.02097C21.1226 1.72353 20.9951 1.57481 20.5011 1.30393C20.0709 1.06491 20.055 1.05429 19.8213 0.624061C19.4919 0.0185557 19.2582 -0.114231 18.8705 0.0876045ZM19.7841 1.81914L20.0921 1.99442L19.7841 2.175C19.5557 2.3131 19.4388 2.42995 19.322 2.6371C19.2317 2.79113 19.1467 2.9133 19.1308 2.9133C19.1148 2.90798 19.0352 2.78582 18.9449 2.63179C18.8227 2.42464 18.7112 2.3131 18.4775 2.175L18.1694 1.99442L18.4668 1.83507C18.6899 1.71291 18.8015 1.61199 18.9024 1.4314C19.1361 1.02242 19.1308 1.02242 19.3114 1.34642C19.4441 1.58543 19.5397 1.68104 19.7841 1.81914Z" fill="black"/>
<path d="M11.4821 0.364135C11.4024 0.443807 11.3758 0.539413 11.3758 0.762493V1.05462H11.1368C10.611 1.05462 10.372 1.37331 10.6322 1.70793C10.7225 1.82478 10.7916 1.85134 11.0465 1.86196L11.3493 1.8779L11.3652 2.17003C11.3865 2.50996 11.5246 2.70117 11.7529 2.70117C12.0132 2.70117 12.1354 2.54183 12.1619 2.17534L12.1832 1.85134H12.47C12.8206 1.85134 12.9693 1.73449 12.9693 1.45829C12.9693 1.20334 12.7727 1.05462 12.4328 1.05462H12.1726V0.794362C12.1726 0.45443 12.0238 0.257906 11.7689 0.257906C11.6573 0.257906 11.5458 0.300398 11.4821 0.364135Z" fill="black"/>
<path d="M8.03499 2.15932C7.88626 2.22837 7.78535 2.37178 7.53571 2.81794L7.22233 3.38627L6.66994 3.68371C6.02195 4.03426 5.93696 4.13518 5.96883 4.50167L5.99539 4.76193L5.27303 4.78318C4.22668 4.82036 3.73271 5.02751 3.2175 5.65957C2.80852 6.15884 2.75009 6.39786 2.72885 7.61949L2.71291 8.68709L2.85632 8.80395C3.04222 8.95267 3.22281 8.94735 3.38216 8.7827C3.51494 8.65523 3.51494 8.6446 3.51494 7.69916V6.74841L3.69022 6.41379C3.79645 6.20134 3.94517 6.01544 4.08858 5.90389C4.47631 5.61176 4.71533 5.56927 6.06975 5.56927H7.28076L7.54633 6.06324C7.85971 6.64219 7.95 6.73779 8.2262 6.76966C8.53957 6.81215 8.69892 6.67405 9.0176 6.10042L9.2938 5.59583L15.8694 5.5799C23.1354 5.56927 22.7689 5.55334 23.231 5.90389C23.3744 6.01544 23.5232 6.20134 23.6294 6.41379L23.8047 6.74841V9.87686V13.0053H23.332H22.8539L22.838 11.3694C22.8221 9.83437 22.8167 9.72283 22.7105 9.49443C22.5459 9.13857 22.2484 8.83581 21.9032 8.66585L21.6004 8.51713H18.5729H15.5454L15.2639 8.6446C14.8974 8.80926 14.5043 9.23948 14.3875 9.60597C14.3131 9.83968 14.2972 10.1212 14.2972 11.4437V13.0053H13.6598H13.0224V11.4437C13.0224 10.1212 13.0065 9.83968 12.9321 9.60597C12.8153 9.23948 12.4222 8.80926 12.0558 8.6446L11.7742 8.51713H8.74672H5.71919L5.41644 8.66585C5.0712 8.83581 4.77376 9.13857 4.6091 9.49443C4.50287 9.72283 4.49756 9.83437 4.48163 11.3694L4.46569 13.0053H3.98766H3.51494V11.6243V10.238L3.38216 10.1106C3.22281 9.95122 3.04222 9.9406 2.85632 10.0893L2.71822 10.1955V11.6562V13.1115L2.38891 13.2762C1.92151 13.5152 1.48597 13.9667 1.24164 14.4766C1.05574 14.8802 1.04512 14.9121 1.02918 15.592L1.00794 16.2931L0.726431 16.4259C0.42899 16.5746 0.205909 16.8402 0.115614 17.1535C0.0837458 17.2545 0.0625 18.0246 0.0625 18.8745C0.0625 20.3829 0.0678114 20.4201 0.189975 20.6857C0.322761 20.9725 0.567088 21.1956 0.853906 21.2965L1.01856 21.3549L1.00794 22.2685L0.992004 23.1767L0.636136 23.1927C0.322761 23.2086 0.264335 23.2245 0.168729 23.3467C0.0253199 23.5273 0.0359428 23.7132 0.195286 23.8672L0.322761 24H13.6598H26.9969L27.1243 23.8672C27.2837 23.7132 27.2943 23.5273 27.1509 23.3467C27.0553 23.2245 26.9969 23.2086 26.6835 23.1927L26.3276 23.1767L26.3117 22.2685L26.3011 21.3549L26.4657 21.2965C26.7525 21.1956 26.9969 20.9725 27.1296 20.6857C27.2518 20.4201 27.2571 20.3829 27.2571 18.8745C27.2571 18.0246 27.2359 17.2545 27.204 17.1535C27.1137 16.8402 26.8906 16.5746 26.5932 16.4259L26.3117 16.2931L26.2904 15.592C26.2745 14.9121 26.2639 14.8802 26.078 14.4766C25.8337 13.9667 25.3981 13.5152 24.9307 13.2762L24.6014 13.1115V9.92997C24.6014 6.95556 24.5961 6.72717 24.5005 6.42442C24.2455 5.60114 23.5922 5.00626 22.753 4.83098C22.5565 4.78849 20.6975 4.77256 16.5333 4.77256H10.5898L10.6163 4.54416C10.6588 4.17236 10.5579 4.04489 9.91524 3.68371L9.34691 3.36502L9.03885 2.80732C8.80515 2.37709 8.6936 2.22837 8.55551 2.15932C8.45459 2.10621 8.33774 2.06372 8.29525 2.06372C8.25275 2.06372 8.1359 2.10621 8.03499 2.15932ZM8.55551 3.5881C8.74141 3.92804 8.7839 3.96522 9.18757 4.19361L9.62311 4.43793L9.20882 4.66102C8.78921 4.88941 8.61924 5.07531 8.39616 5.5799C8.35898 5.66488 8.31649 5.72862 8.30056 5.72862C8.28462 5.72862 8.17839 5.55865 8.06685 5.35682C7.84908 4.96377 7.69505 4.81505 7.23827 4.58666L6.95145 4.44325L7.38699 4.19892C7.80659 3.9599 7.83315 3.93335 8.04561 3.5403C8.17308 3.3066 8.28993 3.15256 8.31649 3.17912C8.34305 3.20568 8.44928 3.38627 8.55551 3.5881ZM11.8752 9.46788C12.2151 9.72283 12.2257 9.79188 12.2257 11.4915V13.0053L8.76265 12.9947L5.29428 12.9787L5.27834 11.4915C5.26772 10.0362 5.26772 9.99902 5.38457 9.76532C5.47487 9.59004 5.57047 9.49443 5.74575 9.40414L5.98477 9.28198L8.8317 9.29791L11.6786 9.31384L11.8752 9.46788ZM21.5739 9.40414C21.7491 9.49443 21.8448 9.59004 21.935 9.76532C22.0519 9.99902 22.0519 10.0362 22.0413 11.4915L22.0253 12.9787L20.809 12.9947C19.768 13.0053 19.5768 13.0212 19.4918 13.0956C19.3537 13.2178 19.3643 13.5471 19.5077 13.6745C19.6139 13.7702 19.752 13.7755 21.9404 13.802L24.2562 13.8286L24.5217 13.9561C24.8563 14.126 25.1803 14.45 25.3503 14.7846C25.4565 15.013 25.4778 15.1405 25.4937 15.6716L25.515 16.2984H13.6651H1.81528V15.7407C1.81528 15.3105 1.84184 15.1193 1.92682 14.8909C2.0596 14.5297 2.45265 14.1101 2.80852 13.9454L3.06347 13.8286L10.5579 13.802C17.8399 13.7755 18.063 13.7702 18.1692 13.6745C18.3073 13.5524 18.318 13.2443 18.1905 13.1009C18.1108 13.0106 17.9886 13.0053 16.597 13.0053H15.0939V11.4915C15.0939 10.3124 15.1098 9.93528 15.1683 9.79719C15.2426 9.61129 15.5188 9.37227 15.7047 9.32447C15.7631 9.31384 17.0538 9.29791 18.5729 9.2926L21.3402 9.28729L21.5739 9.40414ZM26.3489 17.2332C26.4445 17.3554 26.4604 17.451 26.4604 17.9503V18.5292H13.6598H0.859217V17.9503C0.859217 17.451 0.875152 17.3554 0.970758 17.2332L1.07699 17.0951H13.6598H26.2426L26.3489 17.2332ZM26.4604 19.8093C26.4604 20.3563 26.4232 20.4626 26.1895 20.5422C26.0674 20.5847 23.5869 20.6007 17.5212 20.6007C9.68685 20.6007 9.01229 20.606 8.922 20.691C8.7839 20.8131 8.79452 21.1371 8.93793 21.2699C9.04416 21.3655 9.25131 21.3708 16.0553 21.3868L23.0611 21.3974V22.3003V23.2033H13.6598H4.25854V22.3003V21.4027L5.87323 21.3868C7.37637 21.3708 7.49322 21.3655 7.59945 21.2699C7.73754 21.1478 7.74817 20.8397 7.62069 20.6963C7.54102 20.606 7.37105 20.6007 4.41789 20.6007C1.20446 20.6007 1.01856 20.5901 0.912332 20.3882C0.880463 20.3351 0.859217 20.0748 0.859217 19.8093V19.3259H13.6598H26.4604V19.8093ZM3.46183 22.3003V23.2033H2.63855H1.81528V22.3003V21.3974H2.63855H3.46183V22.3003ZM25.5043 22.3003V23.2033H24.6811H23.8578V22.3003V21.3974H24.6811H25.5043V22.3003Z" fill="black"/>
<path d="M14.8813 2.43558C14.8229 2.49401 14.775 2.61086 14.775 2.70115C14.775 2.82863 14.7538 2.8605 14.6688 2.8605C14.5148 2.8605 14.2651 2.9986 14.2227 3.09951C14.1271 3.35446 14.3076 3.64128 14.5785 3.66784C14.7219 3.68377 14.7485 3.70502 14.7644 3.84312C14.8229 4.35301 15.4708 4.37426 15.5505 3.86436C15.5824 3.67846 15.6036 3.65721 15.7364 3.65721C16.087 3.65721 16.241 3.18981 15.9648 2.97204C15.8851 2.9083 15.7683 2.8605 15.6992 2.8605C15.5983 2.8605 15.5718 2.83394 15.5718 2.73302C15.5718 2.66397 15.524 2.54712 15.4602 2.46745C15.3221 2.29217 15.0406 2.27624 14.8813 2.43558Z" fill="black"/>
<path d="M51.4853 16L53.5493 13.024L51.4853 10.048H52.5773L54.2453 12.508L55.9253 10.048H57.0053L54.9413 13.024L57.0053 16H55.9253L54.2453 13.54L52.5773 16H51.4853ZM61.6979 16.144C61.1619 16.144 60.6779 16.048 60.2459 15.856C59.8139 15.656 59.4659 15.36 59.2019 14.968C58.9459 14.576 58.8099 14.088 58.7939 13.504H59.8139C59.8219 13.984 59.9899 14.4 60.3179 14.752C60.6459 15.096 61.1059 15.268 61.6979 15.268C62.2899 15.268 62.7339 15.104 63.0299 14.776C63.3339 14.448 63.4859 14.052 63.4859 13.588C63.4859 13.196 63.3899 12.876 63.1979 12.628C63.0139 12.38 62.7619 12.196 62.4419 12.076C62.1299 11.956 61.7859 11.896 61.4099 11.896H60.7859V11.044H61.4099C61.9539 11.044 62.3779 10.92 62.6819 10.672C62.9939 10.424 63.1499 10.076 63.1499 9.628C63.1499 9.252 63.0259 8.944 62.7779 8.704C62.5379 8.456 62.1779 8.332 61.6979 8.332C61.2339 8.332 60.8619 8.472 60.5819 8.752C60.3019 9.024 60.1459 9.368 60.1139 9.784H59.0939C59.1179 9.328 59.2379 8.924 59.4539 8.572C59.6779 8.22 59.9819 7.948 60.3659 7.756C60.7499 7.556 61.1939 7.456 61.6979 7.456C62.2419 7.456 62.6939 7.552 63.0539 7.744C63.4219 7.936 63.6979 8.192 63.8819 8.512C64.0739 8.832 64.1699 9.184 64.1699 9.568C64.1699 9.992 64.0539 10.38 63.8219 10.732C63.5899 11.076 63.2419 11.308 62.7779 11.428C63.2739 11.532 63.6859 11.768 64.0139 12.136C64.3419 12.504 64.5059 12.988 64.5059 13.588C64.5059 14.052 64.3979 14.48 64.1819 14.872C63.9739 15.256 63.6619 15.564 63.2459 15.796C62.8299 16.028 62.3139 16.144 61.6979 16.144Z" fill="black"/>
</svg>
