<svg width="66" height="24" viewBox="0 0 66 24" fill="none" xmlns="http://www.w3.org/2000/svg">
<path d="M18.808 0.0876045C18.6752 0.151342 18.5637 0.294751 18.3831 0.624061C18.1441 1.0596 18.1281 1.07553 17.7138 1.30393C17.1933 1.58543 17.103 1.68635 17.103 1.98379C17.103 2.28654 17.2305 2.43527 17.7298 2.70084C18.1281 2.9133 18.1494 2.93454 18.3672 3.33821C18.638 3.83218 18.7921 3.97559 19.0736 3.97559C19.3445 3.97559 19.525 3.81093 19.78 3.32759C19.9818 2.95048 20.0137 2.91861 20.3802 2.72208C20.8901 2.4512 21.0441 2.29186 21.0547 2.02097C21.0601 1.72353 20.9326 1.57481 20.4386 1.30393C20.0084 1.06491 19.9925 1.05429 19.7588 0.624061C19.4294 0.0185557 19.1957 -0.114231 18.808 0.0876045ZM19.7216 1.81914L20.0296 1.99442L19.7216 2.175C19.4932 2.3131 19.3763 2.42995 19.2595 2.6371C19.1692 2.79113 19.0842 2.9133 19.0683 2.9133C19.0523 2.90798 18.9727 2.78582 18.8824 2.63179C18.7602 2.42464 18.6487 2.3131 18.415 2.175L18.1069 1.99442L18.4043 1.83507C18.6274 1.71291 18.739 1.61199 18.8399 1.4314C19.0736 1.02242 19.0683 1.02242 19.2489 1.34642C19.3816 1.58543 19.4772 1.68104 19.7216 1.81914Z" fill="black"/>
<path d="M11.4196 0.364135C11.3399 0.443807 11.3133 0.539413 11.3133 0.762493V1.05462H11.0743C10.5485 1.05462 10.3095 1.37331 10.5697 1.70793C10.66 1.82478 10.7291 1.85134 10.984 1.86196L11.2868 1.8779L11.3027 2.17003C11.324 2.50996 11.4621 2.70117 11.6904 2.70117C11.9507 2.70117 12.0729 2.54183 12.0994 2.17534L12.1207 1.85134H12.4075C12.7581 1.85134 12.9068 1.73449 12.9068 1.45829C12.9068 1.20334 12.7102 1.05462 12.3703 1.05462H12.1101V0.794362C12.1101 0.45443 11.9613 0.257906 11.7064 0.257906C11.5948 0.257906 11.4833 0.300398 11.4196 0.364135Z" fill="black"/>
<path d="M7.97249 2.15932C7.82376 2.22837 7.72285 2.37178 7.47321 2.81794L7.15983 3.38627L6.60744 3.68371C5.95945 4.03426 5.87446 4.13518 5.90633 4.50167L5.93289 4.76193L5.21053 4.78318C4.16418 4.82036 3.67021 5.02751 3.155 5.65957C2.74602 6.15884 2.68759 6.39786 2.66635 7.61949L2.65041 8.68709L2.79382 8.80395C2.97972 8.95267 3.16031 8.94735 3.31966 8.7827C3.45244 8.65523 3.45244 8.6446 3.45244 7.69916V6.74841L3.62772 6.41379C3.73395 6.20134 3.88267 6.01544 4.02608 5.90389C4.41381 5.61176 4.65283 5.56927 6.00725 5.56927H7.21826L7.48383 6.06324C7.79721 6.64219 7.8875 6.73779 8.1637 6.76966C8.47707 6.81215 8.63642 6.67405 8.9551 6.10042L9.2313 5.59583L15.8069 5.5799C23.0729 5.56927 22.7064 5.55334 23.1685 5.90389C23.3119 6.01544 23.4607 6.20134 23.5669 6.41379L23.7422 6.74841V9.87686V13.0053H23.2695H22.7914L22.7755 11.3694C22.7596 9.83437 22.7542 9.72283 22.648 9.49443C22.4834 9.13857 22.1859 8.83581 21.8407 8.66585L21.5379 8.51713H18.5104H15.4829L15.2014 8.6446C14.8349 8.80926 14.4418 9.23948 14.325 9.60597C14.2506 9.83968 14.2347 10.1212 14.2347 11.4437V13.0053H13.5973H12.9599V11.4437C12.9599 10.1212 12.944 9.83968 12.8696 9.60597C12.7528 9.23948 12.3597 8.80926 11.9933 8.6446L11.7117 8.51713H8.68422H5.65669L5.35394 8.66585C5.0087 8.83581 4.71126 9.13857 4.5466 9.49443C4.44037 9.72283 4.43506 9.83437 4.41913 11.3694L4.40319 13.0053H3.92516H3.45244V11.6243V10.238L3.31966 10.1106C3.16031 9.95122 2.97972 9.9406 2.79382 10.0893L2.65572 10.1955V11.6562V13.1115L2.32641 13.2762C1.85901 13.5152 1.42347 13.9667 1.17914 14.4766C0.993241 14.8802 0.982618 14.9121 0.966684 15.592L0.945438 16.2931L0.663931 16.4259C0.36649 16.5746 0.143409 16.8402 0.0531145 17.1535C0.0212458 17.2545 0 18.0246 0 18.8745C0 20.3829 0.00531145 20.4201 0.127475 20.6857C0.260261 20.9725 0.504588 21.1956 0.791406 21.2965L0.956061 21.3549L0.945438 22.2685L0.929504 23.1767L0.573636 23.1927C0.260261 23.2086 0.201835 23.2245 0.106229 23.3467C-0.0371801 23.5273 -0.0265572 23.7132 0.132786 23.8672L0.260261 24H13.5973H26.9344L27.0618 23.8672C27.2212 23.7132 27.2318 23.5273 27.0884 23.3467C26.9928 23.2245 26.9344 23.2086 26.621 23.1927L26.2651 23.1767L26.2492 22.2685L26.2386 21.3549L26.4032 21.2965C26.69 21.1956 26.9344 20.9725 27.0671 20.6857C27.1893 20.4201 27.1946 20.3829 27.1946 18.8745C27.1946 18.0246 27.1734 17.2545 27.1415 17.1535C27.0512 16.8402 26.8281 16.5746 26.5307 16.4259L26.2492 16.2931L26.2279 15.592C26.212 14.9121 26.2014 14.8802 26.0155 14.4766C25.7712 13.9667 25.3356 13.5152 24.8682 13.2762L24.5389 13.1115V9.92997C24.5389 6.95556 24.5336 6.72717 24.438 6.42442C24.183 5.60114 23.5297 5.00626 22.6905 4.83098C22.494 4.78849 20.635 4.77256 16.4708 4.77256H10.5273L10.5538 4.54416C10.5963 4.17236 10.4954 4.04489 9.85274 3.68371L9.28441 3.36502L8.97635 2.80732C8.74265 2.37709 8.6311 2.22837 8.49301 2.15932C8.39209 2.10621 8.27524 2.06372 8.23275 2.06372C8.19025 2.06372 8.0734 2.10621 7.97249 2.15932ZM8.49301 3.5881C8.67891 3.92804 8.7214 3.96522 9.12507 4.19361L9.56061 4.43793L9.14632 4.66102C8.72671 4.88941 8.55674 5.07531 8.33366 5.5799C8.29648 5.66488 8.25399 5.72862 8.23806 5.72862C8.22212 5.72862 8.11589 5.55865 8.00435 5.35682C7.78658 4.96377 7.63255 4.81505 7.17577 4.58666L6.88895 4.44325L7.32449 4.19892C7.74409 3.9599 7.77065 3.93335 7.98311 3.5403C8.11058 3.3066 8.22743 3.15256 8.25399 3.17912C8.28055 3.20568 8.38678 3.38627 8.49301 3.5881ZM11.8127 9.46788C12.1526 9.72283 12.1632 9.79188 12.1632 11.4915V13.0053L8.70015 12.9947L5.23178 12.9787L5.21584 11.4915C5.20522 10.0362 5.20522 9.99902 5.32207 9.76532C5.41237 9.59004 5.50797 9.49443 5.68325 9.40414L5.92227 9.28198L8.7692 9.29791L11.6161 9.31384L11.8127 9.46788ZM21.5114 9.40414C21.6866 9.49443 21.7823 9.59004 21.8725 9.76532C21.9894 9.99902 21.9894 10.0362 21.9788 11.4915L21.9628 12.9787L20.7465 12.9947C19.7055 13.0053 19.5143 13.0212 19.4293 13.0956C19.2912 13.2178 19.3018 13.5471 19.4452 13.6745C19.5514 13.7702 19.6895 13.7755 21.8779 13.802L24.1937 13.8286L24.4592 13.9561C24.7938 14.126 25.1178 14.45 25.2878 14.7846C25.394 15.013 25.4153 15.1405 25.4312 15.6716L25.4525 16.2984H13.6026H1.75278V15.7407C1.75278 15.3105 1.77934 15.1193 1.86432 14.8909C1.9971 14.5297 2.39015 14.1101 2.74602 13.9454L3.00097 13.8286L10.4954 13.802C17.7774 13.7755 18.0005 13.7702 18.1067 13.6745C18.2448 13.5524 18.2555 13.2443 18.128 13.1009C18.0483 13.0106 17.9261 13.0053 16.5345 13.0053H15.0314V11.4915C15.0314 10.3124 15.0473 9.93528 15.1058 9.79719C15.1801 9.61129 15.4563 9.37227 15.6422 9.32447C15.7006 9.31384 16.9913 9.29791 18.5104 9.2926L21.2777 9.28729L21.5114 9.40414ZM26.2864 17.2332C26.382 17.3554 26.3979 17.451 26.3979 17.9503V18.5292H13.5973H0.796717V17.9503C0.796717 17.451 0.812652 17.3554 0.908258 17.2332L1.01449 17.0951H13.5973H26.1801L26.2864 17.2332ZM26.3979 19.8093C26.3979 20.3563 26.3607 20.4626 26.127 20.5422C26.0049 20.5847 23.5244 20.6007 17.4587 20.6007C9.62435 20.6007 8.94979 20.606 8.8595 20.691C8.7214 20.8131 8.73202 21.1371 8.87543 21.2699C8.98166 21.3655 9.18881 21.3708 15.9928 21.3868L22.9986 21.3974V22.3003V23.2033H13.5973H4.19604V22.3003V21.4027L5.81073 21.3868C7.31387 21.3708 7.43072 21.3655 7.53695 21.2699C7.67504 21.1478 7.68567 20.8397 7.55819 20.6963C7.47852 20.606 7.30855 20.6007 4.35539 20.6007C1.14196 20.6007 0.956061 20.5901 0.849832 20.3882C0.817963 20.3351 0.796717 20.0748 0.796717 19.8093V19.3259H13.5973H26.3979V19.8093ZM3.39933 22.3003V23.2033H2.57605H1.75278V22.3003V21.3974H2.57605H3.39933V22.3003ZM25.4418 22.3003V23.2033H24.6186H23.7953V22.3003V21.3974H24.6186H25.4418V22.3003Z" fill="black"/>
<path d="M14.8188 2.43558C14.7604 2.49401 14.7125 2.61086 14.7125 2.70115C14.7125 2.82863 14.6913 2.8605 14.6063 2.8605C14.4523 2.8605 14.2026 2.9986 14.1602 3.09951C14.0646 3.35446 14.2451 3.64128 14.516 3.66784C14.6594 3.68377 14.686 3.70502 14.7019 3.84312C14.7604 4.35301 15.4083 4.37426 15.488 3.86436C15.5199 3.67846 15.5411 3.65721 15.6739 3.65721C16.0245 3.65721 16.1785 3.18981 15.9023 2.97204C15.8226 2.9083 15.7058 2.8605 15.6367 2.8605C15.5358 2.8605 15.5093 2.83394 15.5093 2.73302C15.5093 2.66397 15.4615 2.54712 15.3977 2.46745C15.2596 2.29217 14.9781 2.27624 14.8188 2.43558Z" fill="black"/>
<path d="M51.4228 16L53.4868 13.024L51.4228 10.048H52.5148L54.1828 12.508L55.8628 10.048H56.9428L54.8788 13.024L56.9428 16H55.8628L54.1828 13.54L52.5148 16H51.4228ZM58.8874 16V15.292C59.4554 14.844 59.9914 14.392 60.4954 13.936C61.0074 13.472 61.4594 13.016 61.8514 12.568C62.2514 12.12 62.5634 11.68 62.7874 11.248C63.0194 10.816 63.1354 10.4 63.1354 10C63.1354 9.704 63.0834 9.428 62.9794 9.172C62.8834 8.916 62.7234 8.712 62.4994 8.56C62.2754 8.4 61.9714 8.32 61.5874 8.32C61.2194 8.32 60.9114 8.404 60.6634 8.572C60.4154 8.732 60.2274 8.948 60.0994 9.22C59.9794 9.492 59.9194 9.784 59.9194 10.096H58.9474C58.9474 9.544 59.0634 9.072 59.2954 8.68C59.5274 8.28 59.8434 7.976 60.2434 7.768C60.6434 7.56 61.0954 7.456 61.5994 7.456C62.3434 7.456 62.9514 7.668 63.4234 8.092C63.9034 8.508 64.1434 9.132 64.1434 9.964C64.1434 10.46 64.0194 10.952 63.7714 11.44C63.5234 11.92 63.2074 12.388 62.8234 12.844C62.4394 13.292 62.0274 13.712 61.5874 14.104C61.1554 14.496 60.7514 14.848 60.3754 15.16H64.4314V16H58.8874Z" fill="black"/>
</svg>
