<svg width="40" height="40" viewBox="0 0 40 40" fill="" xmlns="http://www.w3.org/2000/svg">
<path d="M4.65901 0.161179C4.07264 0.473766 3.93973 1.0755 4.16646 2.38838C4.55737 4.60777 6.08194 6.57708 8.14596 7.50703C9.13107 7.95247 9.67835 8.06188 11.1951 8.1244L12.5946 8.17128L12.016 8.6011C11.2264 9.17938 9.74089 10.6798 9.11543 11.516C8.06778 12.9305 7.27813 14.4465 6.74649 16.0563L6.4963 16.83L5.76139 16.9785C3.08753 17.5177 0.95314 19.5652 0.288586 22.2144C0.147857 22.7848 0.116584 23.2459 0.0462193 26.0905C-0.0241453 29.1929 -0.0241453 29.3258 0.116584 29.5993C0.398042 30.1385 0.577863 30.2088 1.60988 30.201C2.36043 30.1932 2.64971 30.1541 3.21262 29.9822C4.13518 29.7087 4.90919 29.3023 5.70666 28.685L5.91775 28.5208L5.90211 30.9434C5.88648 33.2722 5.8943 33.366 6.05066 33.577C6.13666 33.6942 6.30867 33.8661 6.42594 33.9521C6.63703 34.1084 6.72304 34.1162 9.02161 34.0928L11.3984 34.0693L10.898 34.8039C10.1084 35.9683 9.67835 37.3046 9.67835 38.594C9.67835 39.3208 9.84253 39.649 10.3273 39.8835C10.6087 40.0241 10.7807 40.0241 13.8455 39.9538C17.5201 39.86 17.825 39.821 19.115 39.1958C21.1165 38.2189 22.6332 36.2418 22.9929 34.1084L23.0945 33.5223L24.0093 33.2175C26.8942 32.2797 29.701 30.2948 31.4288 27.9738L31.8432 27.4112L31.8901 28.81C31.9526 30.3886 32.0699 30.9434 32.5859 32.0062C33.6883 34.2959 36.0807 35.8589 38.5435 35.9058C39.2784 35.9136 39.4738 35.8354 39.81 35.3744C39.9742 35.1634 39.9742 35.093 39.9742 29.4821C39.9742 23.3006 39.9898 23.5507 39.5286 22.355C38.6842 20.1747 36.714 18.5414 34.3059 18.0257C34.1183 17.9866 34.0949 17.9319 34.0089 17.3223C33.8916 16.5096 33.5632 15.3687 33.1801 14.4074L32.8908 13.6885L33.1957 13.4072C34.2356 12.4772 35.4787 11.5785 36.8469 10.7814C38.0587 10.0781 38.8405 9.2966 39.3409 8.2885C39.7866 7.382 39.9195 6.89748 39.982 5.98315C40.0602 4.95943 39.8882 4.17014 39.3722 3.13078C39.0282 2.44308 38.8562 2.20864 38.3245 1.66943C37.7851 1.13802 37.5584 0.973911 36.8782 0.637878C35.1347 -0.213928 33.5554 -0.213924 31.8041 0.645695C30.7174 1.1771 29.959 1.91949 29.2319 3.16985C28.4344 4.53743 27.5353 5.77998 26.5971 6.81934L26.3235 7.12411L25.5104 6.80371C24.5878 6.45204 23.5402 6.15508 22.6254 5.99879L22.0078 5.89719L21.8592 5.27202C21.6716 4.49054 21.1478 3.4043 20.6005 2.70097C19.7561 1.59909 18.4505 0.723843 16.9806 0.262772L16.2848 0.0439606L10.6165 0.0283318C5.0812 0.00488663 4.94047 0.0126991 4.65901 0.161179ZM16.4099 2.52123C17.8406 3.02137 18.9274 4.0451 19.4434 5.3736L19.6076 5.78779H15.0417C10.7416 5.78779 10.4524 5.77997 9.87381 5.63149C8.60724 5.31109 7.48141 4.4124 6.92631 3.27926C6.76994 2.95885 6.61358 2.62282 6.59012 2.52123L6.5354 2.34149L11.2967 2.37275C15.417 2.38838 16.0972 2.41182 16.4099 2.52123ZM35.7367 2.68534C37.8242 3.68563 38.3167 6.39734 36.6983 8.00717C36.5185 8.18691 35.9243 8.60109 35.3614 8.93713C34.1965 9.63264 33.2661 10.2891 32.3592 11.0393C32.0074 11.3363 31.6946 11.5707 31.6634 11.5707C31.6321 11.5707 31.421 11.3284 31.1943 11.0315C30.7408 10.4297 29.3726 9.08561 28.8097 8.67924C28.6064 8.53857 28.4422 8.3901 28.4422 8.35102C28.4422 8.31977 28.6611 8.03062 28.9191 7.71803C29.6072 6.9053 30.4828 5.66275 31.1239 4.5765C31.4288 4.06073 31.8275 3.49807 31.9995 3.31833C32.6954 2.63064 33.4928 2.33368 34.5249 2.38057C35.0565 2.40401 35.2598 2.45871 35.7367 2.68534ZM21.1321 8.22598C21.2181 8.30413 20.7178 12.5319 20.6161 12.5944C20.5692 12.6179 19.8578 12.821 19.0368 13.0399C18.2081 13.2665 17.0901 13.5634 16.5506 13.7119L15.5577 13.9776L14.0488 12.7663C13.2122 12.1021 12.4851 11.516 12.4382 11.4613C12.36 11.391 12.4538 11.2737 12.9073 10.8908C14.6977 9.38257 16.8321 8.47606 19.1854 8.21817C19.8812 8.14002 21.054 8.14002 21.1321 8.22598ZM24.2751 8.84335C26.9255 9.76549 29.2866 11.8598 30.6157 14.4465C31.0066 15.2045 31.5383 16.6268 31.4601 16.705C31.4445 16.7284 30.4124 16.8144 29.185 16.9003L26.9411 17.0566L24.9944 15.1186C23.2274 13.3524 23.0476 13.1493 23.0476 12.9148C23.0476 12.4303 23.5011 8.6011 23.5558 8.6011C23.5714 8.6011 23.892 8.7105 24.2751 8.84335ZM12.4069 14.4543L13.9628 15.6969L13.2748 18.2523C12.8917 19.6511 12.5711 20.8155 12.5555 20.8312C12.4695 20.9171 8.38051 22.4019 8.34142 22.3628C8.31797 22.3394 8.32578 21.597 8.35706 20.7139C8.43524 18.3773 8.79488 16.8456 9.67835 15.0795C10.0614 14.3137 10.726 13.2118 10.812 13.2118C10.8276 13.2118 11.5469 13.7744 12.4069 14.4543ZM23.3291 16.744L25.2133 18.643L24.5331 21.1672C24.1578 22.5582 23.8216 23.7226 23.7825 23.7617C23.7434 23.7929 22.5707 24.129 21.179 24.5041L18.6381 25.1761L16.7461 23.2772L14.8541 21.3782L15.5421 18.8149C15.9252 17.4005 16.2457 16.2361 16.2613 16.2205C16.3004 16.1814 21.2025 14.8685 21.3276 14.8607C21.3901 14.8529 22.2971 15.7047 23.3291 16.744ZM31.8588 20.0262C31.7103 22.9646 30.7174 25.3559 28.7159 27.5753C28.6377 27.6612 28.3875 27.3955 27.4415 26.1999C26.8004 25.3871 26.2297 24.6604 26.1749 24.5744C26.0967 24.4494 26.1906 24.0117 26.7535 21.933C27.1209 20.5654 27.4337 19.4245 27.4571 19.4089C27.4962 19.3698 30.8815 19.1041 31.5617 19.0807L31.9057 19.0728L31.8588 20.0262ZM6.01939 20.417C6.00375 21.0343 5.96466 22.1518 5.93339 22.9021C5.87084 24.168 5.84739 24.3165 5.62066 24.8948C5.31574 25.6763 4.73719 26.4578 4.10391 26.9345C3.5879 27.3252 2.98589 27.6378 2.59498 27.7159L2.35261 27.7628L2.38389 25.6997C2.42298 23.324 2.50898 22.6832 2.91553 21.8393C3.22044 21.2063 3.91627 20.3935 4.51046 19.9872C4.83883 19.7605 5.80048 19.3151 5.96466 19.3073C6.01157 19.3073 6.03503 19.7136 6.01939 20.417ZM35.3771 20.9171C35.9869 21.2688 36.7609 22.0737 37.0814 22.6754C37.6444 23.7539 37.6209 23.4491 37.6444 28.7006L37.6756 33.4441L37.3707 33.3425C36.026 32.8658 34.947 31.803 34.4545 30.4745L34.2669 29.9744L34.2434 25.184L34.2199 20.4013L34.6187 20.5498C34.8298 20.628 35.1738 20.7999 35.3771 20.9171ZM15.0886 24.9104C16.0737 25.8873 16.8712 26.7235 16.8712 26.7703C16.8712 26.8094 16.4255 27.9504 15.8782 29.2867L14.8775 31.7327L12.0082 31.7483C10.4211 31.7561 8.92779 31.764 8.68543 31.7718H8.23196L8.26324 28.3724C8.27887 26.5046 8.30233 24.9573 8.31797 24.9417C8.36488 24.8948 13.0793 23.1521 13.1966 23.1443C13.2591 23.1365 14.1113 23.9336 15.0886 24.9104ZM25.5886 27.63C26.2531 28.4661 26.8004 29.1695 26.8004 29.1929C26.8004 29.2711 25.7371 29.9197 25.0413 30.2635C23.8998 30.834 22.7896 31.2091 21.484 31.467C20.749 31.6077 17.4966 31.7249 17.4966 31.6077C17.4966 31.5686 17.8719 30.6152 18.3254 29.4977L19.1619 27.458L21.6325 26.7938C22.9929 26.4265 24.1656 26.1217 24.236 26.1139C24.322 26.1061 24.8067 26.6531 25.5886 27.63ZM20.5927 34.1318C20.4989 34.5226 20.0141 35.4369 19.6936 35.8198C18.9665 36.6872 17.9579 37.289 16.8946 37.4765C16.5193 37.539 15.4873 37.5938 14.2286 37.6172L12.1646 37.6485L12.2115 37.4062C12.2897 37.0076 12.6962 36.2574 13.0949 35.7573C13.6031 35.1321 14.5022 34.5304 15.3232 34.2725C15.9408 34.0693 16.0893 34.0615 18.2003 34.0068C19.4277 33.9755 20.4754 33.9443 20.5379 33.9365C20.6083 33.9208 20.6239 33.9833 20.5927 34.1318Z" fill="#805840"/>
</svg>
   