<svg width="33" height="32" viewBox="0 0 33 32" fill="none" xmlns="http://www.w3.org/2000/svg">
<g clip-path="url(#clip0_800_801)">
<path d="M15.5046 0.077625C15.3639 0.140157 14.359 1.02811 13.0458 2.24747L10.8215 4.31727L10.8014 3.2855C10.7813 2.26623 10.7813 2.25372 10.5938 2.02861C10.2722 1.63466 10.1583 1.60965 8.83844 1.60965C7.5655 1.60965 7.45161 1.63466 7.11663 1.96608C7.02283 2.05988 6.90894 2.25372 6.86874 2.39129C6.82184 2.55388 6.79504 3.59815 6.79504 5.36154V8.07541L5.16032 9.61369C3.4921 11.177 3.37821 11.3208 3.37821 11.771C3.38491 12.0337 3.6529 12.4151 4.15537 12.8778C5.09333 13.7345 5.5556 13.7658 6.39306 13.0154L6.79504 12.659V14.0347V15.4104L6.54045 15.4541C6.40646 15.4729 6.17197 15.4917 6.01788 15.4917C5.636 15.4917 4.76504 15.7105 4.26927 15.9231C2.86233 16.5422 1.75689 17.7491 1.29461 19.181C1.14052 19.6438 1.14052 19.7125 1.11372 23.4019C1.10032 25.9907 1.11372 27.3039 1.16732 27.6478C1.5693 30.2491 4.06828 32.1501 6.86204 31.9812C7.6191 31.9312 8.12828 31.8124 8.78484 31.531C9.98409 31.012 10.8751 30.1866 11.4446 29.0548C11.7394 28.4732 11.8801 27.973 11.9471 27.2351C12.0074 26.5785 12.1079 26.3722 12.4563 26.2221C12.7444 26.0908 12.9453 26.097 13.22 26.2346C13.6354 26.4409 13.6957 26.641 13.6957 27.8104V28.8422L13.4612 29.0172C13.153 29.2424 13.0659 29.4112 12.8582 30.1928C12.6439 30.9807 12.6707 31.2746 12.9788 31.6061C13.3473 31.9937 13.3741 32 15.9736 32C18.553 32 18.6133 31.9937 18.9415 31.6311C19.2765 31.2559 19.2966 31.037 19.0889 30.2366C18.8679 29.3987 18.7942 29.2549 18.4927 29.0172L18.2649 28.8422L18.2314 27.4352C18.2046 26.2346 18.1845 25.9594 18.0572 25.5718C17.6217 24.1836 16.6101 23.0455 15.2701 22.4264C14.3188 21.9887 13.9168 21.9011 12.8247 21.9011C12.1682 21.9011 11.7997 21.9324 11.4848 22.0137C9.22032 22.589 7.5789 24.4212 7.41811 26.5598C7.35781 27.3977 7.13003 27.6978 6.55385 27.7103C6.21217 27.7166 5.94418 27.554 5.77669 27.2413C5.6695 27.0475 5.6561 26.7536 5.6628 23.7458C5.6628 21.3759 5.6829 20.4004 5.74319 20.2441C5.84369 19.9689 6.19877 19.7438 6.53376 19.7438C6.77494 19.7438 6.79504 19.7563 6.86204 19.9877C6.95583 20.3128 7.16352 20.5505 7.49181 20.688C7.7531 20.8006 8.04118 20.8068 12.731 20.8068H17.6954L17.7356 21.8199C17.7691 22.9454 17.8763 23.4207 18.2783 24.3524C18.9349 25.8531 20.2815 27.2226 21.8425 27.9792C25.8288 29.9177 30.7531 28.2544 32.5151 24.3774C33.721 21.7198 33.0511 18.562 30.8603 16.5297C30.5789 16.2671 30.1635 15.9294 29.9424 15.7731C29.3595 15.3666 28.167 14.8288 27.43 14.6475C26.8539 14.5037 25.5809 14.3536 25.2526 14.3849C25.1253 14.3974 25.1186 14.3536 25.0985 13.5344C25.0918 13.0654 25.1052 12.6777 25.1387 12.6777C25.1655 12.6777 25.3397 12.8216 25.5206 12.9967C25.8891 13.3468 26.2777 13.5532 26.5926 13.5532C26.9477 13.5532 27.3161 13.3343 27.8789 12.7965C28.5154 12.1837 28.6226 11.9399 28.4953 11.4459C28.4216 11.1582 28.1469 10.8956 22.6465 5.74924C19.4775 2.78524 16.7642 0.283979 16.6235 0.190182C16.3153 -0.00991925 15.8396 -0.0599445 15.5046 0.077625ZM21.7018 6.42458L27.3965 11.7398L26.9946 12.115L26.5926 12.4901L21.5678 7.80653C17.1795 3.71071 16.5096 3.11041 16.2617 3.04162C15.6319 2.87279 15.9066 2.65393 10.3794 7.80653L5.35461 12.4901L4.96603 12.1275C4.75834 11.9274 4.58415 11.7398 4.58415 11.7085C4.58415 11.6335 15.853 1.11565 15.9401 1.11565C15.9803 1.1094 18.5664 3.4981 21.7018 6.42458ZM9.6759 4.03587V5.39281L8.80494 6.20572L7.93399 7.01863V4.84253V2.67269H8.80494H9.6759V4.03587ZM19.9733 7.81278L23.9462 11.5209V13.0217V14.5224L23.37 14.66C20.9983 15.2353 18.8612 17.1175 18.1108 19.2873L17.9567 19.7438H16.9651H15.9736V16.6985C15.9736 13.7345 15.9669 13.647 15.8329 13.3843C15.7391 13.203 15.5984 13.0592 15.4041 12.9529L15.116 12.7965L13.0391 12.8153C11.056 12.8341 10.9488 12.8403 10.7746 12.9654C10.6742 13.0342 10.5268 13.1717 10.4531 13.2655C10.3191 13.4344 10.3124 13.5282 10.2789 16.5735L10.2454 19.7125H9.10643H7.96749L7.94739 15.648L7.93399 11.5834L11.9337 7.8503C14.1379 5.79301 15.9535 4.11091 15.9736 4.11091C15.9937 4.11091 17.7959 5.78051 19.9733 7.81278ZM14.8347 16.8048V19.7438H13.1262H11.4178V16.8048V13.8658H13.1262H14.8347V16.8048ZM26.2241 15.5229C28.2139 15.673 30.2975 17.0424 31.2488 18.8058C32.026 20.2503 32.1801 21.8886 31.6776 23.3706C30.9273 25.5968 29.0849 27.1413 26.5926 27.629C26.3715 27.6728 25.802 27.7103 25.3196 27.7041C24.6229 27.6978 24.3214 27.6666 23.8122 27.5415C21.5008 26.9787 19.7924 25.4342 19.0822 23.2768C18.9081 22.7516 18.8947 22.639 18.8947 21.5885C18.8947 20.5442 18.9081 20.4254 19.0755 19.9126C19.7857 17.7553 21.5209 16.1983 23.8256 15.6417C24.2879 15.5292 25.1856 15.4354 25.5541 15.4666C25.6814 15.4792 25.9829 15.5042 26.2241 15.5229ZM6.79504 17.6177V18.6808H6.47346C5.74319 18.6808 5.07993 19.0872 4.73824 19.7313L4.55065 20.0877V23.6833C4.55065 27.0725 4.55735 27.2976 4.67795 27.5853C4.83874 27.9792 5.25412 28.4044 5.6896 28.6108C6.18537 28.8484 6.88214 28.8484 7.41811 28.5983C8.10148 28.2919 8.53696 27.6103 8.53696 26.8474C8.53696 26.3284 8.71785 25.6843 9.01263 25.1215C9.7094 23.8146 11.2369 22.9329 12.8247 22.9329C14.4126 22.9329 15.92 23.8021 16.6302 25.1215C17.0254 25.8594 17.1125 26.3034 17.1125 27.6666V28.8109H15.9803H14.848L14.8213 27.6415C14.8012 26.2971 14.7409 26.097 14.2317 25.6218C13.823 25.2403 13.4344 25.0903 12.8247 25.0903C12.4094 25.0903 12.2553 25.1215 11.9337 25.2716C11.2369 25.5905 10.8148 26.2659 10.8148 27.06C10.8148 27.9667 10.3258 29.0172 9.57541 29.7239C7.31092 31.8624 3.4988 31.0245 2.45365 28.1543L2.27276 27.6541V23.7458C2.27276 20.1315 2.27946 19.8126 2.39336 19.4624C2.62115 18.7683 2.96283 18.2431 3.539 17.7115C4.36306 16.9486 5.28092 16.5672 6.31267 16.561L6.79504 16.5547V17.6177ZM17.9634 30.4054L18.0974 30.937H15.9736H13.8498L13.9838 30.4054L14.1245 29.8739H15.9736H17.8227L17.9634 30.4054Z" fill="#805840"/>
<path d="M24.8973 17.1862C24.5556 17.3488 24.4082 17.5489 23.9593 18.4681C22.9544 20.5191 22.271 22.4639 22.271 23.233C22.2777 24.0272 22.5725 24.6587 23.2023 25.2465C23.8923 25.8906 24.6695 26.1657 25.6141 26.1032C27.2623 25.9969 28.5285 24.7338 28.5218 23.2205C28.5151 22.5139 28.093 21.2007 27.3158 19.4686C26.733 18.1805 26.3243 17.4614 26.063 17.2738C25.7347 17.0424 25.2724 17.0049 24.8973 17.1862ZM25.6476 18.6057C26.2573 19.7375 27.1417 21.9199 27.3225 22.7515C27.5235 23.6832 27.0948 24.5212 26.2305 24.8964C25.7615 25.0965 24.9643 25.0777 24.5154 24.8588C24.1134 24.665 23.8186 24.3773 23.6042 23.9959C23.4702 23.7645 23.4434 23.627 23.4501 23.183C23.4568 22.6014 23.6578 21.9574 24.3144 20.4003C24.6159 19.675 25.3461 18.1805 25.393 18.1805C25.4064 18.1805 25.5203 18.3743 25.6476 18.6057Z" fill="#805840"/>
</g>
<defs>
<clipPath id="clip0_800_801">
<rect width="32" height="32" fill="white" transform="translate(0.0385742)"/>
</clipPath>
</defs>
</svg>
