<svg width="33" height="32" viewBox="0 0 33 32" fill="none" xmlns="http://www.w3.org/2000/svg">
<g clip-path="url(#clip0_800_760)">
<path d="M14.5386 3.53752C11.5011 3.81252 9.06988 4.45627 6.62613 5.62502C4.56363 6.61252 2.61988 7.95002 1.03863 9.48127C0.313632 10.175 0.113632 10.4938 0.0573822 11.0188C-0.0676178 12.2188 1.05738 13.2375 2.23238 12.9938C2.66988 12.9 2.90738 12.7563 3.44488 12.25C6.91988 8.95627 11.3199 7.18752 16.0386 7.18752C20.7574 7.18752 25.1574 8.95627 28.6324 12.25C29.1761 12.7625 29.4074 12.9063 29.8574 12.9938C31.3074 13.2938 32.5011 11.725 31.8449 10.4C31.6699 10.0563 30.6261 9.03127 29.6761 8.27502C26.5074 5.75002 22.9261 4.23127 18.8511 3.68127C17.9761 3.56252 15.2699 3.47502 14.5386 3.53752Z" fill="#CE8F68"/>
<path d="M14.7136 9.63125C11.6449 9.88125 8.60736 11.1 6.16361 13.05C4.71361 14.2125 4.30736 14.7875 4.36986 15.625C4.41361 16.3125 4.74486 16.8125 5.36361 17.1187C5.68236 17.2812 5.81986 17.3125 6.18861 17.3125C6.78236 17.3125 7.10736 17.15 7.78861 16.5312C9.37611 15.0812 11.0636 14.1562 13.0261 13.6625C14.1324 13.3812 14.8011 13.3 16.0386 13.3C19.2011 13.3 21.9074 14.3562 24.2886 16.5312C24.9699 17.15 25.2949 17.3125 25.8886 17.3125C26.8886 17.3125 27.6449 16.6125 27.7074 15.625C27.7699 14.7875 27.3636 14.2125 25.9136 13.05C22.7449 10.5187 18.7386 9.3 14.7136 9.63125Z" fill="#CE8F68"/>
<path d="M15.5073 15.6625C14.476 15.7375 13.3573 15.9812 12.4385 16.3437C10.9448 16.9312 9.13851 18.2812 8.78851 19.0812C8.58226 19.5437 8.60726 20.1062 8.85101 20.6C9.15101 21.2125 9.66976 21.5625 10.351 21.6062C10.926 21.65 11.3198 21.4875 11.9073 20.9687C12.776 20.2062 13.5323 19.7937 14.5698 19.525C15.4635 19.2937 16.6135 19.2937 17.5073 19.525C18.5448 19.7937 19.301 20.2062 20.1698 20.9687C20.7573 21.4875 21.151 21.65 21.726 21.6062C22.701 21.5437 23.4198 20.7687 23.4198 19.7875C23.4198 19.2062 23.2385 18.8312 22.6885 18.2937C21.326 16.9687 19.351 16.0187 17.4135 15.7562C16.8448 15.6812 15.9323 15.6375 15.5073 15.6625Z" fill="#CE8F68"/>
<path d="M15.6635 22.2563C13.4885 22.5063 12.2635 24.85 13.2698 26.8375C13.5948 27.475 14.3885 28.1375 15.0885 28.35C15.5573 28.5 16.5135 28.5 16.9635 28.3563C17.4698 28.2 17.9135 27.9188 18.301 27.5125C19.2635 26.5063 19.4385 25.1125 18.7698 23.825C18.2073 22.75 16.9385 22.1063 15.6635 22.2563Z" fill="#CE8F68"/>
</g>
<defs>
<clipPath id="clip0_800_760">
<rect width="32" height="32" fill="white" transform="translate(0.0385742)"/>
</clipPath>
</defs>
</svg>
